<svg width="1366" height="1025" viewBox="0 0 1366 1025" fill="none" xmlns="http://www.w3.org/2000/svg">
<g filter="url(#filter0_b)">
<path fill-rule="evenodd" clip-rule="evenodd" d="M1366 0H0V375.224C0.703342 373.805 1.42137 372.392 2.15428 370.984C12.1051 351.87 24.4834 334.49 38.5657 318.352C50.5421 304.634 63.5955 292.044 77.5492 280.419C105.087 257.479 135.052 238.546 167.589 223.847C194.966 211.469 223.549 203.082 252.919 197.277C264.252 195.037 275.618 193.042 287.064 191.555C288.713 191.338 290.358 191.081 292.003 190.824C293.469 190.594 294.934 190.365 296.404 190.165C299.233 189.772 302.062 189.429 304.892 189.135C306.509 188.964 308.131 188.808 309.755 188.653C312.166 188.423 314.579 188.192 316.98 187.908C323.089 187.189 329.198 186.551 335.339 186.175C335.798 186.145 336.252 186.097 336.703 186.05C336.994 186.019 337.284 185.988 337.573 185.963C338.691 185.865 339.812 185.766 340.933 185.668C342.054 185.57 343.176 185.472 344.293 185.374C345.265 185.292 346.237 185.215 347.209 185.137C348.182 185.059 349.155 184.982 350.128 184.9C350.769 184.851 351.41 184.793 352.051 184.735C352.905 184.657 353.759 184.58 354.614 184.524C358.064 184.319 361.509 184.119 364.955 183.919C368.398 183.718 371.84 183.518 375.287 183.314C375.808 183.285 376.33 183.235 376.848 183.185C377.225 183.149 377.6 183.112 377.972 183.085C378.527 183.048 379.083 183.008 379.639 182.968C381.028 182.867 382.418 182.767 383.807 182.709C390.39 182.422 396.973 182.149 403.561 181.877C406.722 181.746 409.885 181.615 413.049 181.483C413.274 181.474 413.499 181.462 413.724 181.45C413.949 181.438 414.174 181.425 414.399 181.417C419.945 181.205 425.491 180.992 431.037 180.796C432.239 180.75 433.44 180.725 434.64 180.701C436.443 180.663 438.245 180.626 440.04 180.518C447.664 180.063 455.303 179.969 462.942 179.876L463.896 179.864C466.999 179.82 470.109 179.747 473.217 179.675C474.762 179.638 476.307 179.602 477.85 179.57C481.212 179.509 484.575 179.443 487.939 179.377C495.529 179.227 503.123 179.077 510.708 178.997C522.798 178.871 534.879 178.802 546.964 178.732C552.138 178.702 557.312 178.672 562.488 178.638C567.435 178.605 572.382 178.556 577.328 178.507L577.342 178.507C577.499 178.505 577.656 178.504 577.813 178.503C579.006 178.497 580.192 178.491 581.329 178H781.246C782.635 178.563 784.076 178.539 785.51 178.515C785.869 178.509 786.227 178.504 786.583 178.507C796.844 178.585 807.105 178.659 817.365 178.732C832.761 178.842 848.157 178.952 863.554 179.079C867.921 179.12 872.277 179.217 876.64 179.314C877.529 179.334 878.418 179.354 879.308 179.373C887.013 179.535 894.718 179.729 902.438 179.922L902.714 179.929L902.719 179.929C907.813 180.044 912.907 180.158 918.018 180.322C921.66 180.432 925.302 180.557 928.939 180.682C930.696 180.742 932.452 180.803 934.206 180.861C935.454 180.905 936.703 180.947 937.951 180.988C940.448 181.072 942.946 181.156 945.443 181.254C947.94 181.352 950.436 181.464 952.933 181.577C954.182 181.633 955.431 181.69 956.68 181.744C965.216 182.12 973.768 182.513 982.305 182.905C982.755 182.921 983.205 182.987 983.655 183.02C987.151 183.255 990.643 183.49 994.135 183.726C997.676 183.965 1001.22 184.203 1004.76 184.442C1005.06 184.464 1005.36 184.471 1005.66 184.478C1005.81 184.482 1005.96 184.486 1006.11 184.491C1007.98 184.623 1009.84 184.752 1011.71 184.88C1015.38 185.133 1019.05 185.387 1022.72 185.668C1025.56 185.881 1028.39 186.143 1031.24 186.42C1035.27 186.797 1039.31 187.173 1043.33 187.598C1045.96 187.876 1048.59 188.187 1051.22 188.497C1052.76 188.679 1054.3 188.861 1055.83 189.037C1057.03 189.174 1058.23 189.302 1059.43 189.43C1061.81 189.683 1064.19 189.937 1066.56 190.263C1069.01 190.6 1071.46 190.972 1073.91 191.344C1076.8 191.782 1079.68 192.22 1082.57 192.601C1090.61 193.647 1098.56 195.135 1106.51 196.639C1117.1 198.651 1127.63 201.021 1138.06 203.817C1156.48 208.739 1174.54 214.788 1192.01 222.522C1233.09 240.704 1270.08 265.262 1302.9 296.246C1315.57 308.198 1327.19 321.148 1337.74 335.062C1348.94 349.844 1358.38 365.523 1366 382.142V0ZM1366 632.91C1354.77 659.913 1339.64 684.721 1320.62 707.329C1298.61 733.489 1273.13 755.562 1244.35 773.679C1220.39 788.754 1194.91 800.346 1167.69 807.933C1158.3 810.549 1148.82 812.789 1139.27 814.718C1133.9 815.801 1128.48 816.676 1123.08 817.549L1122.89 817.58C1118.9 818.234 1114.88 818.789 1110.86 819.28C1108.93 819.516 1107 819.707 1105.07 819.899C1103.12 820.092 1101.18 820.284 1099.24 820.523C1095.22 821.013 1091.19 821.356 1087.15 821.634C1085.49 821.743 1083.83 821.878 1082.17 822.012C1080.84 822.119 1079.51 822.227 1078.18 822.321C1077.45 822.374 1076.72 822.422 1075.99 822.468C1075.38 822.508 1074.76 822.545 1074.14 822.583C1070.7 822.795 1067.26 823.008 1063.82 823.204C1063.07 823.242 1062.31 823.263 1061.55 823.284C1060.36 823.317 1059.16 823.349 1057.97 823.449C1053.6 823.82 1049.21 823.928 1044.82 824.037C1043.2 824.076 1041.59 824.116 1039.98 824.169C1033.63 824.382 1027.28 824.693 1020.93 825.005C1019.49 825.075 1018.05 825.146 1016.61 825.215L1016.42 825.224C1015.13 825.285 1013.85 825.346 1012.67 826H982.047C981.086 825.379 980.009 825.249 978.928 825.119C978.671 825.088 978.413 825.057 978.157 825.019C976.659 824.809 975.159 824.628 973.66 824.447C970.847 824.109 968.038 823.77 965.248 823.237C957.001 821.651 949.51 818.413 942.855 813.181C940.01 810.941 937.277 808.538 934.769 805.905C931.007 801.965 927.262 798.024 923.596 793.986C915.06 784.568 906.379 775.281 897.377 766.321C877.861 746.897 857.654 728.257 836.53 710.648C825.856 701.753 814.941 693.169 803.575 685.223C793.689 678.307 783.513 671.881 772.806 666.322C758.981 659.144 744.497 653.944 729.225 651.001C725.399 650.266 721.573 649.579 717.699 649.039C717.094 648.956 716.489 648.872 715.884 648.788C711.734 648.21 707.589 647.633 703.408 647.404C702.813 647.372 702.225 647.311 701.634 647.25C701.332 647.218 701.028 647.187 700.723 647.159C698.183 646.946 695.643 646.734 693.103 646.538C692.354 646.479 691.603 646.431 690.851 646.383C689.506 646.297 688.158 646.21 686.818 646.064C683.217 645.671 679.632 645.655 676.047 646.031C674.319 646.209 672.574 646.318 670.831 646.427C670.174 646.468 669.517 646.509 668.861 646.554C668.318 646.59 667.773 646.617 667.228 646.644C666.273 646.691 665.318 646.738 664.376 646.832C662.345 647.04 660.314 647.265 658.283 647.49C655.845 647.76 653.407 648.03 650.969 648.271C645.149 648.843 639.394 649.873 633.655 650.952C619.284 653.683 605.571 658.424 592.469 664.965C582.631 669.87 573.243 675.576 564.128 681.74C550.496 690.945 537.555 701.099 524.935 711.645C510.564 723.663 496.626 736.171 483.026 749.071C468.108 763.231 453.592 777.783 439.863 793.136C436.937 796.406 433.979 799.643 430.925 802.799C428.305 805.513 425.604 808.178 422.791 810.696C417.807 815.176 412.229 818.708 405.895 820.931C401.201 822.566 396.394 823.646 391.443 824.152C388.614 824.447 385.784 824.839 382.971 825.248C382.634 825.282 382.281 825.484 381.918 825.692C381.762 825.781 381.604 825.872 381.444 825.951H349.919C348.716 825.245 347.387 825.199 346.065 825.154C345.887 825.147 345.709 825.141 345.531 825.133C336.834 824.757 328.137 824.398 319.44 824.054C317.761 823.984 316.08 823.922 314.396 823.861C312.179 823.78 309.958 823.699 307.737 823.596C304.731 823.466 301.741 823.318 298.751 823.155C292.16 822.779 285.569 822.387 278.978 821.994C278.573 821.967 278.164 821.911 277.755 821.855C277.417 821.809 277.078 821.762 276.743 821.732C275.746 821.634 274.75 821.551 273.753 821.467C273.255 821.425 272.756 821.384 272.258 821.34C271.275 821.251 270.29 821.163 269.306 821.076C265.961 820.778 262.61 820.48 259.269 820.114C256.72 819.834 254.172 819.47 251.623 819.106C250.603 818.961 249.583 818.815 248.562 818.675C247.152 818.479 245.741 818.291 244.33 818.104C240.689 817.62 237.05 817.137 233.435 816.5C223.693 814.784 214 812.822 204.386 810.402C187.475 806.151 170.981 800.673 155.098 793.381C107.884 771.717 68.0485 740.324 35.656 699.268C21.1559 680.892 9.34058 661.267 0 640.507V1024.5H1366V632.91Z" fill="#001A58" fill-opacity="0.7"/>
</g>
<defs>
<filter id="filter0_b" x="-30" y="-30" width="1426" height="1084.5" filterUnits="userSpaceOnUse" color-interpolation-filters="sRGB">
<feFlood flood-opacity="0" result="BackgroundImageFix"/>
<feGaussianBlur in="BackgroundImage" stdDeviation="15"/>
<feComposite in2="SourceAlpha" operator="in" result="effect1_backgroundBlur"/>
<feBlend mode="normal" in="SourceGraphic" in2="effect1_backgroundBlur" result="shape"/>
</filter>
</defs>
</svg>
