<svg width="1782" height="1337" viewBox="0 0 1782 1337" fill="none" xmlns="http://www.w3.org/2000/svg">
<g filter="url(#filter0_b)">
<path fill-rule="evenodd" clip-rule="evenodd" d="M1782 0H0V1336.5H1782V0ZM543.576 1051.2H576.656C576.824 1051.12 576.99 1051.02 577.154 1050.93C577.535 1050.72 577.905 1050.51 578.259 1050.47C581.211 1050.05 584.18 1049.65 587.149 1049.35C592.345 1048.82 597.389 1047.71 602.314 1046.02C608.961 1043.73 614.815 1040.09 620.044 1035.47C622.996 1032.88 625.83 1030.13 628.58 1027.33C631.785 1024.08 634.889 1020.74 637.959 1017.37C652.366 1001.54 667.598 986.543 683.253 971.947C697.525 958.648 712.15 945.754 727.231 933.366C740.474 922.494 754.053 912.027 768.359 902.538C777.923 896.183 787.775 890.301 798.099 885.244C811.848 878.502 826.237 873.614 841.318 870.8C847.34 869.687 853.38 868.625 859.486 868.035C862.045 867.787 864.604 867.509 867.163 867.23C869.294 866.998 871.424 866.767 873.555 866.552C874.543 866.456 875.545 866.407 876.548 866.358C877.12 866.33 877.692 866.302 878.262 866.266C878.949 866.22 879.638 866.177 880.327 866.135C882.157 866.022 883.988 865.91 885.802 865.726C889.564 865.339 893.326 865.355 897.105 865.76C898.512 865.911 899.925 866 901.337 866.089C902.126 866.139 902.915 866.188 903.701 866.249C906.365 866.451 909.03 866.67 911.694 866.889L911.697 866.889C912.017 866.918 912.336 866.95 912.653 866.983C913.273 867.046 913.89 867.109 914.514 867.142C918.902 867.377 923.251 867.972 927.607 868.568C928.241 868.655 928.876 868.742 929.511 868.828C933.576 869.384 937.591 870.092 941.606 870.85C957.632 873.884 972.831 879.244 987.338 886.643C998.573 892.374 1009.25 898.998 1019.63 906.128C1031.55 914.319 1043.01 923.168 1054.21 932.337C1076.37 950.49 1097.58 969.705 1118.06 989.729C1127.51 998.966 1136.61 1008.54 1145.57 1018.25C1149.42 1022.41 1153.35 1026.47 1157.3 1030.54C1159.93 1033.25 1162.8 1035.73 1165.78 1038.04C1172.77 1043.43 1180.63 1046.77 1189.28 1048.4C1192.21 1048.95 1195.16 1049.3 1198.11 1049.65C1199.68 1049.84 1201.25 1050.02 1202.83 1050.24C1203.1 1050.28 1203.37 1050.31 1203.63 1050.34C1204.77 1050.48 1205.9 1050.61 1206.91 1051.25H1239.04C1240.28 1050.58 1241.63 1050.51 1242.98 1050.45L1243.18 1050.44C1244.68 1050.37 1246.19 1050.3 1247.7 1050.22C1254.37 1049.9 1261.03 1049.58 1267.71 1049.36C1269.39 1049.31 1271.08 1049.27 1272.78 1049.23C1277.38 1049.11 1281.99 1049 1286.58 1048.62C1287.83 1048.52 1289.08 1048.48 1290.33 1048.45C1291.13 1048.43 1291.93 1048.41 1292.72 1048.37C1296.33 1048.17 1299.94 1047.95 1303.55 1047.73L1303.55 1047.73C1304.95 1047.64 1306.37 1047.56 1307.79 1047.46C1309.18 1047.36 1310.58 1047.25 1311.97 1047.14C1313.71 1047 1315.46 1046.86 1317.2 1046.75C1321.43 1046.46 1325.67 1046.11 1329.89 1045.6C1331.92 1045.36 1333.96 1045.16 1336 1044.96C1338.03 1044.76 1340.06 1044.57 1342.08 1044.32C1346.3 1043.82 1350.52 1043.24 1354.7 1042.57L1354.9 1042.54C1360.57 1041.64 1366.26 1040.74 1371.89 1039.62C1381.91 1037.63 1391.86 1035.32 1401.71 1032.63C1430.27 1024.8 1457.01 1012.85 1482.16 997.314C1512.36 978.638 1539.1 955.884 1562.19 928.916C1588.51 898.189 1607.72 863.518 1619.83 824.92C1624.41 810.374 1627.9 795.576 1630.43 780.524C1631.67 773.104 1632.59 765.641 1633.5 758.174L1633.73 756.253C1633.87 755.159 1633.9 754.048 1633.93 752.938C1633.94 752.475 1633.95 752.012 1633.97 751.55C1633.99 750.991 1634.02 750.432 1634.04 749.874C1634.13 747.921 1634.21 745.968 1634.22 744.016C1634.22 742.297 1634.6 740.628 1635 738.976V697.462C1634.93 697.232 1634.85 697.002 1634.78 696.771C1634.6 696.258 1634.43 695.743 1634.36 695.22C1634.21 694.142 1634.17 693.029 1634.17 691.934C1634.11 682.798 1632.79 673.781 1631.34 664.78C1629.5 653.437 1626.97 642.279 1623.82 631.239C1614.82 599.72 1600.16 571.1 1580.16 545.16C1569.09 530.816 1556.9 517.467 1543.6 505.146C1509.16 473.205 1470.34 447.889 1427.24 429.146C1408.9 421.174 1389.96 414.938 1370.62 409.864C1359.68 406.982 1348.63 404.538 1337.51 402.465C1329.18 400.914 1320.83 399.38 1312.39 398.302C1309.36 397.909 1306.33 397.458 1303.31 397.006C1300.74 396.623 1298.17 396.239 1295.59 395.891C1293.1 395.555 1290.61 395.294 1288.11 395.033C1286.85 394.901 1285.6 394.769 1284.34 394.627C1282.72 394.447 1281.11 394.259 1279.49 394.071C1276.74 393.751 1273.98 393.431 1271.21 393.144C1267 392.706 1262.76 392.318 1258.53 391.93C1255.54 391.644 1252.57 391.374 1249.59 391.155C1245.74 390.864 1241.88 390.603 1238.03 390.343C1236.07 390.21 1234.12 390.078 1232.16 389.941C1232 389.936 1231.85 389.932 1231.69 389.928C1231.37 389.921 1231.06 389.913 1230.74 389.891C1227.05 389.646 1223.36 389.402 1219.67 389.158C1215.98 388.913 1212.29 388.669 1208.6 388.424C1208.12 388.391 1207.65 388.323 1207.18 388.307C1198.22 387.902 1189.25 387.497 1180.29 387.11C1178.98 387.054 1177.67 386.996 1176.36 386.938C1173.74 386.821 1171.12 386.705 1168.5 386.604C1165.88 386.503 1163.25 386.417 1160.63 386.331C1159.32 386.288 1158.02 386.245 1156.71 386.2C1154.87 386.139 1153.03 386.077 1151.19 386.015C1147.37 385.886 1143.54 385.757 1139.72 385.643C1134.35 385.475 1129.01 385.357 1123.66 385.239L1123.34 385.231C1115.25 385.031 1107.17 384.832 1099.1 384.666C1098.16 384.646 1097.23 384.625 1096.3 384.605C1091.72 384.505 1087.15 384.404 1082.57 384.362C1066.41 384.231 1050.25 384.118 1034.09 384.004C1023.33 383.929 1012.56 383.853 1001.8 383.773C1001.42 383.769 1001.05 383.775 1000.67 383.781C999.164 383.806 997.653 383.83 996.195 383.25H786.409C785.216 383.756 783.971 383.763 782.719 383.769C782.555 383.77 782.39 383.771 782.225 383.773L782.197 383.773C777.011 383.823 771.824 383.874 766.638 383.907C761.207 383.943 755.778 383.974 750.35 384.004C737.668 384.076 724.989 384.148 712.302 384.278C704.343 384.36 696.376 384.514 688.412 384.669C684.881 384.737 681.35 384.806 677.821 384.868C676.203 384.902 674.582 384.939 672.961 384.976C669.699 385.051 666.435 385.126 663.179 385.171L662.176 385.184C654.16 385.28 646.145 385.376 638.145 385.846C636.261 385.957 634.371 385.995 632.478 386.034C631.219 386.059 629.958 386.085 628.698 386.132C622.879 386.334 617.06 386.554 611.241 386.773L611.238 386.773C611.002 386.781 610.766 386.794 610.53 386.806C610.294 386.819 610.057 386.832 609.821 386.84C606.5 386.977 603.181 387.112 599.862 387.247C592.95 387.527 586.043 387.808 579.136 388.104C577.678 388.164 576.221 388.268 574.763 388.371C574.179 388.412 573.596 388.453 573.012 388.492C572.622 388.52 572.229 388.558 571.834 388.595C571.29 388.647 570.743 388.699 570.195 388.728C566.577 388.939 562.963 389.145 559.348 389.352C555.734 389.558 552.12 389.764 548.501 389.975C547.605 390.033 546.709 390.113 545.812 390.193C545.14 390.252 544.467 390.312 543.795 390.363C542.774 390.447 541.752 390.527 540.731 390.607C539.711 390.687 538.691 390.767 537.671 390.852C535.327 391.054 532.965 391.256 530.62 391.458C530.316 391.485 530.012 391.516 529.707 391.548C529.234 391.597 528.758 391.647 528.275 391.678C521.831 392.065 515.421 392.723 509.01 393.464C506.49 393.756 503.958 393.994 501.428 394.232C499.725 394.392 498.022 394.552 496.325 394.728C493.356 395.032 490.387 395.386 487.418 395.79C485.876 395.997 484.338 396.233 482.801 396.469C481.074 396.735 479.348 397 477.617 397.223C465.606 398.757 453.679 400.813 441.786 403.122C410.966 409.106 380.973 417.752 352.244 430.512C318.101 445.664 286.657 465.182 257.76 488.83C243.117 500.814 229.419 513.792 216.852 527.934C202.074 544.57 189.085 562.487 178.643 582.19C168.656 601.034 161.301 620.856 156.156 641.537C153.913 650.538 152.107 659.622 150.741 668.792C149.746 675.466 149.02 682.191 148.396 688.917C147.826 695.072 147.61 701.235 147.395 707.396C147.292 710.344 147.189 713.292 147.047 716.239C146.953 718.102 147.018 719.964 147.082 721.827C147.1 722.324 147.117 722.821 147.131 723.318C147.178 724.912 147.246 726.507 147.314 728.102C147.394 729.962 147.474 731.823 147.519 733.684C147.738 741.875 148.481 749.999 149.307 758.14C150.269 767.68 151.652 777.17 153.406 786.592C162.651 836.146 182.118 881.165 213.798 920.606C247.79 962.929 289.592 995.291 339.137 1017.62C355.804 1025.14 373.112 1030.79 390.858 1035.17C400.946 1037.66 411.118 1039.69 421.341 1041.46C425.134 1042.11 428.954 1042.61 432.774 1043.11C434.255 1043.3 435.735 1043.5 437.215 1043.7C438.283 1043.84 439.352 1043.99 440.421 1044.14C443.097 1044.52 445.773 1044.89 448.45 1045.18C451.955 1045.56 455.471 1045.87 458.981 1046.17C460.014 1046.26 461.048 1046.35 462.08 1046.45C463.649 1046.58 465.218 1046.7 466.787 1046.85C467.139 1046.88 467.494 1046.93 467.85 1046.98C468.278 1047.04 468.707 1047.09 469.132 1047.12C476.048 1047.53 482.964 1047.93 489.881 1048.32C493.018 1048.49 496.156 1048.64 499.311 1048.77C501.639 1048.88 503.968 1048.96 506.293 1049.04C508.062 1049.11 509.828 1049.17 511.591 1049.24C520.718 1049.6 529.844 1049.97 538.97 1050.36C539.157 1050.36 539.344 1050.37 539.531 1050.38C540.918 1050.42 542.312 1050.47 543.576 1051.2Z" fill="#001A58" fill-opacity="0.7"/>
</g>
<defs>
<filter id="filter0_b" x="-30" y="-30" width="1842" height="1396.5" filterUnits="userSpaceOnUse" color-interpolation-filters="sRGB">
<feFlood flood-opacity="0" result="BackgroundImageFix"/>
<feGaussianBlur in="BackgroundImage" stdDeviation="15"/>
<feComposite in2="SourceAlpha" operator="in" result="effect1_backgroundBlur"/>
<feBlend mode="normal" in="SourceGraphic" in2="effect1_backgroundBlur" result="shape"/>
</filter>
</defs>
</svg>
