<svg width="1920" height="1080" viewBox="0 0 1920 1080" fill="none" xmlns="http://www.w3.org/2000/svg">
<g filter="url(#filter0_b)">
<path fill-rule="evenodd" clip-rule="evenodd" d="M1920 0H0V1080H1920V0ZM585.671 849.454H621.313C621.494 849.388 621.673 849.313 621.849 849.238C622.26 849.065 622.659 848.897 623.04 848.868C626.22 848.528 629.419 848.201 632.618 847.956C638.216 847.533 643.651 846.635 648.958 845.272C656.119 843.42 662.426 840.478 668.061 836.746C671.242 834.649 674.295 832.429 677.258 830.168C680.711 827.539 684.055 824.842 687.363 822.118C702.885 809.329 719.298 797.207 736.165 785.411C751.542 774.665 767.3 764.246 783.549 754.235C797.817 745.45 812.448 736.991 827.861 729.323C838.167 724.188 848.781 719.435 859.905 715.349C874.718 709.901 890.222 705.951 906.471 703.676C912.959 702.777 919.466 701.919 926.046 701.443C928.802 701.242 931.557 701.017 934.313 700.792C936.61 700.605 938.907 700.417 941.204 700.244C942.269 700.166 943.349 700.127 944.429 700.087C945.045 700.065 945.661 700.042 946.275 700.012C947.016 699.975 947.758 699.941 948.5 699.907C950.472 699.816 952.445 699.725 954.4 699.577C958.453 699.263 962.506 699.277 966.578 699.604C968.093 699.726 969.617 699.798 971.138 699.87C971.988 699.91 972.837 699.95 973.684 699.999C976.554 700.162 979.424 700.339 982.295 700.516L982.299 700.516C982.645 700.539 982.988 700.566 983.33 700.592C983.998 700.643 984.662 700.694 985.335 700.721C990.063 700.911 994.75 701.392 999.443 701.873C1000.13 701.943 1000.81 702.013 1001.49 702.083C1005.87 702.532 1010.2 703.104 1014.52 703.717C1031.79 706.169 1048.17 710.5 1063.8 716.479C1075.9 721.11 1087.41 726.463 1098.59 732.224C1111.44 738.844 1123.78 745.994 1135.85 753.404C1159.73 768.073 1182.58 783.6 1204.64 799.781C1214.82 807.245 1224.64 814.981 1234.29 822.826C1238.43 826.19 1242.67 829.473 1246.92 832.755C1249.75 834.948 1252.84 836.951 1256.06 838.817C1263.59 843.175 1272.06 845.872 1281.38 847.193C1284.53 847.637 1287.71 847.919 1290.89 848.201C1292.58 848.352 1294.28 848.502 1295.97 848.678C1296.26 848.709 1296.55 848.735 1296.85 848.761C1298.07 848.869 1299.29 848.977 1300.37 849.495H1335C1336.33 848.95 1337.78 848.899 1339.23 848.849L1339.45 848.841C1341.07 848.783 1342.7 848.725 1344.32 848.666C1351.51 848.406 1358.69 848.147 1365.88 847.969C1367.7 847.925 1369.52 847.892 1371.34 847.859C1376.3 847.769 1381.27 847.679 1386.22 847.37C1387.56 847.287 1388.91 847.26 1390.26 847.232C1391.12 847.215 1391.98 847.198 1392.83 847.166C1396.72 847.002 1400.61 846.825 1404.5 846.648C1405.44 846.606 1406.39 846.563 1407.34 846.517C1407.92 846.49 1408.49 846.461 1409.06 846.43C1410.57 846.351 1412.07 846.262 1413.57 846.172C1415.45 846.061 1417.33 845.949 1419.21 845.858C1423.77 845.627 1428.33 845.341 1432.87 844.932C1435.06 844.734 1437.26 844.573 1439.46 844.412C1441.65 844.253 1443.83 844.093 1446.01 843.897C1450.56 843.488 1455.1 843.025 1459.61 842.48L1459.82 842.455C1465.93 841.728 1472.06 840.999 1478.13 840.097C1488.93 838.49 1499.65 836.624 1510.27 834.444C1541.04 828.125 1569.84 818.468 1596.94 805.91C1629.48 790.819 1658.29 772.431 1683.17 750.639C1711.52 725.809 1732.23 697.792 1745.28 666.602C1750.2 654.848 1753.96 642.889 1756.69 630.726C1758.03 624.729 1759.01 618.698 1760 612.663L1760.25 611.113C1760.39 610.229 1760.43 609.332 1760.46 608.435C1760.47 608.06 1760.49 607.686 1760.51 607.313C1760.53 606.862 1760.56 606.41 1760.58 605.959C1760.67 604.381 1760.77 602.803 1760.78 601.225C1760.78 599.836 1761.18 598.487 1761.62 597.152V563.606C1761.54 563.42 1761.46 563.234 1761.37 563.047C1761.19 562.633 1761 562.217 1760.93 561.794C1760.76 560.922 1760.73 560.023 1760.73 559.138C1760.65 551.756 1759.24 544.469 1757.67 537.196C1755.69 528.029 1752.96 519.013 1749.57 510.092C1739.88 484.622 1724.08 461.495 1702.53 440.533C1690.6 428.942 1677.46 418.155 1663.14 408.198C1626.03 382.388 1584.2 361.93 1537.77 346.785C1518.01 340.342 1497.6 335.303 1476.77 331.203C1464.97 328.874 1453.07 326.899 1441.09 325.224C1432.11 323.971 1423.11 322.731 1414.03 321.86C1410.76 321.543 1407.5 321.178 1404.24 320.813C1401.47 320.503 1398.7 320.193 1395.92 319.912C1393.24 319.641 1390.55 319.429 1387.87 319.218C1386.51 319.111 1385.15 319.005 1383.8 318.89C1382.06 318.744 1380.32 318.593 1378.58 318.441C1375.61 318.183 1372.64 317.924 1369.66 317.692C1365.12 317.338 1360.56 317.025 1356 316.712L1355.99 316.711C1352.77 316.48 1349.57 316.262 1346.36 316.085C1342.21 315.85 1338.06 315.639 1333.91 315.428C1331.8 315.321 1329.69 315.214 1327.58 315.104C1327.41 315.099 1327.24 315.096 1327.07 315.093C1326.73 315.087 1326.39 315.081 1326.06 315.063C1318.09 314.668 1310.15 314.273 1302.19 313.878C1301.99 313.867 1301.78 313.852 1301.58 313.837C1301.27 313.814 1300.97 313.791 1300.66 313.783C1291.01 313.456 1281.34 313.129 1271.69 312.816C1270.28 312.77 1268.87 312.723 1267.45 312.676C1264.63 312.583 1261.81 312.489 1258.99 312.407C1256.16 312.326 1253.34 312.256 1250.51 312.186C1249.1 312.151 1247.69 312.117 1246.28 312.08C1244.3 312.032 1242.31 311.981 1240.32 311.931C1236.21 311.827 1232.1 311.723 1227.98 311.631C1222.2 311.495 1216.45 311.399 1210.69 311.304L1210.68 311.304L1210.32 311.297C1201.61 311.136 1192.91 310.975 1184.21 310.841C1183.21 310.825 1182.2 310.808 1181.2 310.792C1176.26 310.711 1171.34 310.63 1166.4 310.596C1148.99 310.489 1131.58 310.398 1114.17 310.306C1102.57 310.245 1090.97 310.184 1079.38 310.119C1078.97 310.116 1078.57 310.121 1078.16 310.126C1076.54 310.146 1074.91 310.165 1073.34 309.697H847.309C846.024 310.106 844.682 310.111 843.334 310.116C843.156 310.117 842.979 310.117 842.801 310.119L842.764 310.119C837.178 310.16 831.593 310.201 826.007 310.228C820.156 310.257 814.307 310.281 808.458 310.306C794.794 310.365 781.133 310.423 767.463 310.528C758.887 310.594 750.301 310.719 741.719 310.844C737.916 310.899 734.113 310.954 730.312 311.004C728.567 311.032 726.819 311.062 725.071 311.092C721.559 311.152 718.043 311.213 714.536 311.25L713.457 311.259C704.82 311.337 696.183 311.415 687.563 311.794C685.534 311.884 683.497 311.915 681.458 311.946C680.101 311.967 678.743 311.988 677.385 312.026C671.114 312.189 664.844 312.366 658.573 312.543C658.319 312.55 658.064 312.56 657.81 312.571C657.555 312.581 657.301 312.591 657.046 312.598C653.476 312.708 649.908 312.817 646.341 312.926C638.885 313.153 631.435 313.38 623.985 313.619C622.414 313.668 620.842 313.752 619.271 313.835C618.643 313.868 618.015 313.902 617.387 313.933C616.966 313.956 616.543 313.986 616.117 314.016C615.531 314.058 614.941 314.1 614.352 314.123C610.453 314.294 606.559 314.46 602.665 314.627C598.771 314.794 594.877 314.961 590.978 315.131C590.012 315.178 589.046 315.242 588.081 315.307C587.356 315.355 586.631 315.404 585.907 315.445C584.807 315.513 583.707 315.577 582.608 315.642C581.508 315.707 580.409 315.771 579.309 315.84C576.783 316.003 574.238 316.166 571.712 316.33C571.384 316.351 571.056 316.377 570.728 316.402C570.217 316.442 569.705 316.482 569.185 316.507C562.242 316.82 555.336 317.351 548.429 317.951C545.714 318.187 542.985 318.379 540.26 318.571C538.424 318.7 536.589 318.83 534.761 318.972C531.562 319.217 528.363 319.503 525.164 319.83C523.503 319.997 521.846 320.188 520.189 320.379C518.329 320.594 516.469 320.808 514.604 320.988C501.663 322.227 488.813 323.889 475.999 325.755C442.792 330.59 410.476 337.577 379.523 347.888C342.735 360.133 308.856 375.905 277.721 395.014C261.944 404.698 247.186 415.186 233.645 426.613C217.723 440.056 203.728 454.535 192.477 470.457C181.717 485.684 173.793 501.702 168.249 518.414C165.832 525.687 163.887 533.028 162.415 540.438C161.342 545.831 160.561 551.266 159.888 556.7C159.274 561.674 159.041 566.655 158.809 571.633C158.698 574.015 158.587 576.398 158.434 578.779C158.334 580.284 158.403 581.789 158.473 583.295C158.491 583.696 158.51 584.098 158.525 584.499C158.575 585.788 158.649 587.076 158.722 588.365C158.808 589.869 158.894 591.372 158.943 592.876C159.179 599.495 159.979 606.06 160.87 612.639C161.906 620.348 163.396 628.016 165.286 635.63C175.247 675.673 196.221 712.053 230.355 743.924C266.979 778.125 312.018 804.276 365.4 822.322C383.358 828.397 402.006 832.96 421.127 836.501C431.996 838.517 442.956 840.151 453.97 841.581C458.056 842.111 462.17 842.514 466.285 842.917C467.882 843.073 469.478 843.229 471.073 843.393C472.225 843.51 473.378 843.631 474.53 843.752C477.413 844.055 480.295 844.358 483.178 844.591C486.957 844.897 490.748 845.145 494.532 845.393C495.643 845.466 496.754 845.539 497.864 845.613C498.428 845.649 498.991 845.684 499.555 845.719C500.681 845.789 501.808 845.858 502.935 845.94C503.314 845.965 503.697 846.003 504.08 846.042C504.542 846.089 505.004 846.135 505.462 846.158C512.914 846.485 520.366 846.812 527.818 847.125C531.198 847.261 534.579 847.384 537.978 847.493C540.49 847.578 543.002 847.645 545.511 847.713C547.413 847.764 549.313 847.815 551.21 847.874C561.043 848.16 570.876 848.46 580.709 848.773C580.91 848.779 581.112 848.784 581.313 848.79C582.807 848.828 584.31 848.866 585.671 849.454Z" fill="#001A58" fill-opacity="0.7"/>
</g>
<defs>
<filter id="filter0_b" x="-30" y="-30" width="1980" height="1140" filterUnits="userSpaceOnUse" color-interpolation-filters="sRGB">
<feFlood flood-opacity="0" result="BackgroundImageFix"/>
<feGaussianBlur in="BackgroundImage" stdDeviation="15"/>
<feComposite in2="SourceAlpha" operator="in" result="effect1_backgroundBlur"/>
<feBlend mode="normal" in="SourceGraphic" in2="effect1_backgroundBlur" result="shape"/>
</filter>
</defs>
</svg>
