<svg width="26" height="21" viewBox="0 0 26 21" fill="none" xmlns="http://www.w3.org/2000/svg">
<path d="M24.0093 9.09983C23.0142 5.68097 21.8921 3.91446 21.8739 3.88277C21.81 3.8047 20.2242 1.90704 16.4023 0.503418L15.8973 1.87842C17.7155 2.5462 19.0054 3.36085 19.7149 3.88722C17.5969 3.25474 15.0773 2.86739 12.8457 2.86739C10.6142 2.86739 8.0946 3.25474 5.97663 3.88722C6.68601 3.3609 7.97595 2.5462 9.79417 1.87842L9.28914 0.503418C5.4673 1.90704 3.88155 3.8047 3.81759 3.88277C3.79947 3.91446 2.67725 5.68097 1.68223 9.09983C0.723243 12.3946 0.358936 17.0425 0.345703 17.2289C0.431153 17.3625 2.39649 20.7179 7.75261 20.7179L9.11023 18.752C7.58923 18.3481 6.13888 17.6969 4.81124 16.8131L5.62292 15.5937C7.76477 17.0194 10.2624 17.773 12.8457 17.773C15.4291 17.773 17.9267 17.0194 20.0686 15.5937L20.8802 16.8131C19.5526 17.6969 18.1022 18.3481 16.5812 18.752L17.9389 20.7179C23.295 20.7179 25.2603 17.3625 25.3458 17.2289C25.3325 17.0425 24.9682 12.3946 24.0093 9.09983ZM9.45911 12.932H7.99426V10.4906H9.45911V12.932ZM17.6972 12.932H16.2324V10.4906H17.6972V12.932Z" fill="#0073FF"/>
</svg>
