<svg width="26" height="24" viewBox="0 0 26 24" fill="none" xmlns="http://www.w3.org/2000/svg">
<path fill-rule="evenodd" clip-rule="evenodd" d="M3.2916 0C1.45837 0 0.259766 1.20379 0.259766 2.78601C0.259766 4.33328 1.42266 5.57141 3.22125 5.57141H3.25605C5.12513 5.57141 6.28834 4.33328 6.28834 2.78601C6.25339 1.20379 5.12513 0 3.2916 0ZM0.576244 7.77298H5.93555V23.8966H0.576244V7.77298ZM14.2597 10.1109C14.2597 10.1109 16.1984 7.39411 19.0895 7.39411C22.6153 7.39411 25.2594 9.6987 25.2594 14.6512V23.8963H19.9005V15.2706C19.9005 13.103 19.1249 11.6244 17.1856 11.6244C15.705 11.6244 14.8234 12.6216 14.4359 13.5841C14.2943 13.9288 14.2594 14.4101 14.2594 14.8922V23.8963H8.90022V7.77254H14.2597V10.1109Z" fill="#0073FF"/>
</svg>
