<svg width="26" height="23" viewBox="0 0 26 23" fill="none" xmlns="http://www.w3.org/2000/svg">
<path d="M17.2509 15.6687C16.1726 15.6687 15.2933 14.7809 15.2933 13.6918C15.2933 12.6027 16.1726 11.7148 17.2509 11.7148C18.3294 11.7148 19.2087 12.6027 19.2087 13.6918C19.2087 14.7809 18.3294 15.6687 17.2509 15.6687ZM17.5967 18.9133C16.2591 20.2603 13.7001 20.3666 12.9488 20.3666C12.1973 20.3666 9.63469 20.2603 8.30068 18.9133C8.10172 18.7122 8.10172 18.3897 8.30068 18.1884C8.49994 17.9874 8.81931 17.9874 9.01857 18.1884C9.86008 19.0386 11.66 19.3421 12.9488 19.3421C14.2339 19.3421 16.0373 19.0386 16.8791 18.1884C17.0781 17.9874 17.3975 17.9874 17.5967 18.1884C17.7922 18.3897 17.7922 18.7122 17.5967 18.9133ZM6.68122 13.6919C6.68122 12.6029 7.56048 11.715 8.639 11.715C9.71736 11.715 10.5966 12.6029 10.5966 13.6919C10.5966 14.7809 9.71736 15.669 8.639 15.669C7.56048 15.6687 6.68122 14.7809 6.68122 13.6919ZM25.4686 11.715C25.4686 10.1857 24.2437 8.94866 22.7294 8.94866C21.9892 8.94866 21.3202 9.24448 20.8281 9.72657C18.9569 8.36055 16.3756 7.48017 13.501 7.3777L14.7485 1.44666L18.8255 2.32333C18.8744 3.37069 19.7234 4.20555 20.7719 4.20555C21.8539 4.20555 22.7295 3.32131 22.7295 2.22843C22.7295 1.13571 21.8539 0.251465 20.7719 0.251465C20.0015 0.251465 19.3439 0.702999 19.0246 1.35561L14.4704 0.376617C14.3427 0.350074 14.2113 0.373067 14.1022 0.444979C13.9934 0.517046 13.918 0.627074 13.8919 0.756084C13.8919 0.756084 12.5241 7.33604 12.5241 7.374C9.5971 7.44977 6.96682 8.33401 5.06559 9.71901C4.5734 9.24094 3.90823 8.94866 3.17185 8.94866C1.65752 8.94866 0.432617 10.1894 0.432617 11.715C0.432617 12.8381 1.09764 13.8058 2.05207 14.2382C2.01081 14.5117 1.9882 14.7922 1.9882 15.0769C1.9882 19.3344 6.89546 22.7839 12.9488 22.7839C19.0019 22.7839 23.9092 19.3344 23.9092 15.0769C23.9092 14.7961 23.8867 14.5191 23.8455 14.2459C24.7961 13.8134 25.4686 12.8458 25.4686 11.715Z" fill="#0073FF"/>
</svg>
