<svg width="26" height="21" viewBox="0 0 26 21" fill="none" xmlns="http://www.w3.org/2000/svg">
<path d="M8.04646 20.5321C17.4945 20.5321 22.6612 12.8271 22.6612 6.1459C22.6612 5.92707 22.6566 5.70914 22.6466 5.49242C23.6495 4.77865 24.5211 3.88794 25.2088 2.87411C24.2885 3.27696 23.2979 3.54779 22.2591 3.67032C23.3195 3.04411 24.1337 2.05394 24.5177 0.873565C23.5253 1.45275 22.4261 1.87354 21.2561 2.10081C20.3188 1.11802 18.9842 0.503418 17.5066 0.503418C14.6701 0.503418 12.3697 2.76771 12.3697 5.55888C12.3697 5.95586 12.4149 6.34168 12.5029 6.71182C8.23387 6.50038 4.44817 4.48853 1.91504 1.42909C1.4741 2.17616 1.21964 3.04426 1.21964 3.97053C1.21964 5.72451 2.12648 7.27338 3.50535 8.17915C2.66266 8.15368 1.8711 7.92596 1.17906 7.54692C1.1783 7.56817 1.1783 7.58881 1.1783 7.61142C1.1783 10.0602 2.94881 12.1047 5.29944 12.568C4.86768 12.6836 4.41342 12.7459 3.94492 12.7459C3.61451 12.7459 3.29238 12.7139 2.97943 12.6547C3.63335 14.6637 5.52971 16.1256 7.77792 16.1666C6.0198 17.523 3.80513 18.3309 1.39816 18.3309C0.984159 18.3309 0.574907 18.3076 0.172852 18.2608C2.44616 19.6952 5.14557 20.5322 8.04662 20.5322" fill="#0073FF"/>
</svg>
