<svg width="26" height="19" viewBox="0 0 26 19" fill="none" xmlns="http://www.w3.org/2000/svg">
<path d="M24.6071 3.49813C24.3186 2.42582 23.4729 1.58053 22.4005 1.29179C20.4414 0.755859 12.6046 0.755859 12.6046 0.755859C12.6046 0.755859 4.76818 0.755859 2.80903 1.27147C1.75726 1.5599 0.890989 2.42597 0.602488 3.49813C0.0869141 5.45668 0.0869141 9.51846 0.0869141 9.51846C0.0869141 9.51846 0.0869141 13.6007 0.602488 15.5388C0.891295 16.6109 1.73663 17.4562 2.80919 17.745C4.78881 18.2811 12.6049 18.2811 12.6049 18.2811C12.6049 18.2811 20.4414 18.2811 22.4005 17.7654C23.4731 17.4769 24.3186 16.6316 24.6074 15.5594C25.1228 13.6007 25.1228 9.53908 25.1228 9.53908C25.1228 9.53908 25.1434 5.45668 24.6071 3.49813ZM10.1096 13.2709V5.76605L16.6262 9.51846L10.1096 13.2709Z" fill="#0073FF"/>
</svg>
