<svg width="20" height="20" viewBox="0 0 20 20" fill="none" xmlns="http://www.w3.org/2000/svg">
<path d="M0 14.0649C0 15.0343 0.827637 15.8228 1.79688 15.8228C2.2673 15.8228 2.69287 15.6346 3.00873 15.3325L8.26431 17.9836C8.25516 18.0562 8.24219 18.1279 8.24219 18.2031C8.24219 19.1725 9.03076 20 10 20C10.9692 20 11.7578 19.1725 11.7578 18.2031C11.7578 18.1247 11.7447 18.0499 11.7346 17.9742L16.9673 15.3389C17.2824 15.6369 17.7046 15.8228 18.1714 15.8228C19.1408 15.8228 20 15.0342 20 14.0649C20 13.3429 19.4911 12.7223 18.8672 12.4521V7.47467C19.4911 7.20444 20 6.58386 20 5.86182C20 4.89258 19.1408 4.104 18.1714 4.104C17.6997 4.104 17.2729 4.29306 16.9569 4.59641L11.736 2.01279C11.7448 1.94122 11.7578 1.87073 11.7578 1.79688C11.7578 0.827637 10.9692 0 10 0C9.03076 0 8.24219 0.827637 8.24219 1.79688C8.24219 1.86768 8.25485 1.93512 8.26309 2.00363L3.01819 4.6019C2.70157 4.29504 2.27173 4.104 1.79688 4.104C0.827637 4.104 0 4.89258 0 5.86182C0 6.62476 0.530396 7.26898 1.21094 7.51175V12.415C0.530396 12.6578 0 13.302 0 14.0649H0ZM8.26431 9.78043C8.25516 9.85306 8.24219 9.92477 8.24219 10C8.24219 10.0708 8.25485 10.1381 8.26309 10.2068L6.25778 11.2006L6.77856 12.2511L8.77884 11.2599C8.95767 11.4334 9.17465 11.5645 9.41406 11.6499V16.5533C9.17847 16.6373 8.9653 16.7662 8.78815 16.9356L3.53256 14.2847C3.54172 14.2119 3.55469 14.1402 3.55469 14.0649C3.55469 13.9941 3.54202 13.9268 3.53378 13.8583L5.46585 12.9012L4.94507 11.8506L3.01819 12.805C2.83936 12.6315 2.62222 12.5005 2.38281 12.415V7.51175C2.61841 7.42767 2.83157 7.29889 3.00873 7.12936L8.26431 9.78043ZM11.2144 11.2654L13.1706 12.2482L13.6971 11.201L11.736 10.2159C11.7448 10.1443 11.7578 10.0739 11.7578 10C11.7578 9.92157 11.7447 9.8468 11.7346 9.77112L16.9673 7.13577C17.1704 7.32773 17.4194 7.4675 17.6953 7.54578V12.381C17.4149 12.4606 17.1616 12.603 16.9569 12.7995L14.9954 11.8533L14.4688 12.9005L16.4354 13.8492C16.4265 13.9207 16.4136 13.9911 16.4136 14.0649C16.4136 14.1434 16.4267 14.2183 16.4368 14.2938L11.2041 16.9292C11.0283 16.763 10.8182 16.636 10.5859 16.5532V11.6499C10.8226 11.5656 11.0368 11.436 11.2144 11.2654ZM11.2144 3.06229L16.4354 5.6459C16.4265 5.71747 16.4136 5.78796 16.4136 5.86182C16.4136 5.94025 16.4267 6.01517 16.4368 6.0907L11.2041 8.72604C10.889 8.42804 10.4668 8.24219 10 8.24219C9.52957 8.24219 9.104 8.43048 8.78815 8.73245L3.53256 6.08154C3.54172 6.00876 3.55469 5.93704 3.55469 5.86182C3.55469 5.79102 3.54202 5.72372 3.53378 5.65506L8.77869 3.05679C9.09531 3.3638 9.52515 3.55469 10 3.55469C10.4716 3.55469 10.8986 3.36578 11.2144 3.06229Z" fill="#0073FF"/>
</svg>
