<svg width="21" height="15" viewBox="0 0 21 15" fill="none" xmlns="http://www.w3.org/2000/svg">
<path d="M2.32031 9.98242C1.78125 9.98242 1.28027 9.9502 0.817383 9.88574C0.682617 9.60449 0.615234 9.2998 0.615234 8.97168C0.615234 8.85449 0.624023 8.74023 0.641602 8.62891C0.84668 8.66992 1.11035 8.70508 1.43262 8.73438C1.75488 8.75781 2.08887 8.76953 2.43457 8.76953C2.84473 8.76953 3.24023 8.74902 3.62109 8.70801C4.00195 8.66113 4.31543 8.59082 4.56152 8.49707C4.80762 8.39746 4.93066 8.26855 4.93066 8.11035C4.93066 7.91113 4.83398 7.61816 4.64062 7.23145C4.45312 6.84473 4.16016 6.4082 3.76172 5.92188C3.36914 5.42969 2.8623 4.93457 2.24121 4.43652C2.24121 4.24902 2.29102 3.99707 2.39062 3.68066C2.49609 3.36426 2.64844 3.12402 2.84766 2.95996C3.60938 3.79785 4.23047 4.52734 4.71094 5.14844C5.19141 5.76367 5.5459 6.30566 5.77441 6.77441C6.00293 7.24316 6.11719 7.68262 6.11719 8.09277C6.11719 8.5791 5.92383 8.95996 5.53711 9.23535C5.15625 9.51074 4.67578 9.7041 4.0957 9.81543C3.51562 9.92676 2.92383 9.98242 2.32031 9.98242ZM8.8418 10.1582C8.5957 10.1582 8.38477 10.0732 8.20898 9.90332C8.0332 9.72754 7.94531 9.51953 7.94531 9.2793C7.94531 9.0332 8.0332 8.8252 8.20898 8.65527C8.38477 8.47949 8.5957 8.3916 8.8418 8.3916C9.08203 8.3916 9.29004 8.47949 9.46582 8.65527C9.6416 8.8252 9.72949 9.0332 9.72949 9.2793C9.72949 9.51953 9.6416 9.72754 9.46582 9.90332C9.29004 10.0732 9.08203 10.1582 8.8418 10.1582ZM15.8115 10.5537C15.8174 10.3662 15.8203 10.1582 15.8203 9.92969C15.8262 9.69531 15.8291 9.44922 15.8291 9.19141C15.8291 8.59375 15.8232 7.94629 15.8115 7.24902C15.7998 6.5459 15.7852 5.84863 15.7676 5.15723C15.75 4.46582 15.7295 3.83008 15.7061 3.25C15.6885 2.66406 15.6738 2.18359 15.6621 1.80859C15.6504 1.43359 15.6445 1.21973 15.6445 1.16699C15.7148 1.02637 15.8379 0.90625 16.0137 0.806641C16.1953 0.701172 16.3857 0.616211 16.585 0.551758C16.79 0.487305 16.957 0.446289 17.0859 0.428711C17.0977 0.499023 17.1064 0.607422 17.1123 0.753906C17.1182 0.894531 17.1211 1.03223 17.1211 1.16699C17.127 1.30176 17.1299 1.38672 17.1299 1.42188C17.1299 1.71484 17.127 2.13672 17.1211 2.6875C17.1211 3.23242 17.1152 3.84766 17.1035 4.5332C17.0977 5.21875 17.0889 5.91309 17.0771 6.61621C17.0654 7.31348 17.0508 7.96094 17.0332 8.55859C17.0156 9.15625 16.998 9.64258 16.9805 10.0176C16.8633 10.1699 16.6934 10.29 16.4707 10.3779C16.248 10.4658 16.0283 10.5244 15.8115 10.5537ZM15.2578 14.1309C15.1465 14.0664 15.0498 13.9697 14.9678 13.8408C14.8916 13.7119 14.8418 13.6035 14.8184 13.5156C14.9883 13.4688 15.1904 13.4219 15.4248 13.375C15.6592 13.334 15.9111 13.293 16.1807 13.252C15.7764 13.082 15.4834 12.9092 15.3018 12.7334C15.1201 12.5576 15.0293 12.335 15.0293 12.0654C15.0293 11.8076 15.1494 11.5557 15.3896 11.3096C15.6357 11.0635 15.9814 10.9404 16.4268 10.9404C16.7021 10.9404 16.9512 10.9932 17.1738 11.0986C17.4023 11.2041 17.6162 11.3418 17.8154 11.5117C17.792 11.623 17.7334 11.7256 17.6396 11.8193C17.5459 11.9131 17.458 11.9834 17.376 12.0303C17.1885 11.8955 17.0068 11.7988 16.8311 11.7402C16.6611 11.6816 16.5117 11.6523 16.3828 11.6523C16.2539 11.6523 16.1309 11.6846 16.0137 11.749C15.8965 11.8135 15.8379 11.9248 15.8379 12.083C15.8379 12.2119 15.9521 12.3496 16.1807 12.4961C16.415 12.6484 16.9043 12.8418 17.6484 13.0762C17.6484 13.1582 17.6221 13.2607 17.5693 13.3838C17.5166 13.5127 17.4551 13.6152 17.3848 13.6914C16.834 13.7324 16.374 13.8027 16.0049 13.9023C15.6416 14.0078 15.3926 14.084 15.2578 14.1309ZM19.9512 10.1582C19.7051 10.1582 19.4941 10.0732 19.3184 9.90332C19.1426 9.72754 19.0547 9.51953 19.0547 9.2793C19.0547 9.0332 19.1426 8.8252 19.3184 8.65527C19.4941 8.47949 19.7051 8.3916 19.9512 8.3916C20.1914 8.3916 20.3994 8.47949 20.5752 8.65527C20.751 8.8252 20.8389 9.0332 20.8389 9.2793C20.8389 9.51953 20.751 9.72754 20.5752 9.90332C20.3994 10.0732 20.1914 10.1582 19.9512 10.1582Z" fill="#A4A4A4"/>
</svg>
