<svg width="50" height="51" viewBox="0 0 50 51" fill="none" xmlns="http://www.w3.org/2000/svg">
<path d="M49.9261 6.50479C49.7761 6.14743 49.4265 5.91492 49.0389 5.91492L44.2208 5.93993L44.1996 0.958201C44.1973 0.426781 43.7648 -0.00227633 43.2332 9.0879e-06C42.9781 0.00109165 42.7337 0.103454 42.5541 0.284604L36.8016 6.08043C36.6238 6.25965 36.5236 6.50155 36.5225 6.75403V12.2737L35.3735 13.4265C35.3417 13.3721 35.3039 13.3215 35.261 13.2754C26.5623 5.48117 13.1922 6.21443 5.39798 14.913C-2.39626 23.6115 -1.66312 36.9817 7.03554 44.7759C15.7342 52.5702 29.1043 51.8371 36.8985 43.1384C43.4363 35.8421 44.1069 25.0109 38.5192 16.9638C38.2153 16.5276 37.6151 16.4203 37.1788 16.7242C36.7425 17.0282 36.6352 17.6284 36.9392 18.0647C43.0058 26.8002 40.8423 38.7997 32.1067 44.8663C23.3711 50.9329 11.3718 48.7694 5.30512 40.0339C-0.761586 31.2985 1.4021 19.2989 10.1376 13.2323C17.4666 8.14248 27.3321 8.75413 33.9763 14.7103C33.9975 14.7295 34.0263 14.7363 34.0494 14.7536L29.9338 18.8683C27.4962 16.7342 24.3658 15.5594 21.126 15.5629C13.6856 15.5623 7.65357 21.5934 7.65309 29.0337C7.65261 36.4741 13.6837 42.5062 21.1241 42.5066C28.5644 42.5071 34.5965 36.476 34.597 29.0357C34.5971 26.8822 34.0811 24.7601 33.092 22.8472C32.8472 22.3753 32.2662 22.1911 31.7943 22.4359C31.3225 22.6806 31.1382 23.2616 31.383 23.7335C32.2359 25.3701 32.6787 27.1893 32.6734 29.0347C32.6894 35.4281 27.5195 40.6239 21.1262 40.6399C14.7328 40.6559 9.53699 35.4861 9.521 29.0928C9.505 22.6994 14.6749 17.5036 21.0681 17.4876C23.8158 17.4807 26.4764 18.4514 28.5741 20.226L24.4661 24.333C21.8665 22.4909 18.2659 23.1051 16.4238 25.7047C14.5818 28.3043 15.1959 31.9049 17.7955 33.747C20.3951 35.589 23.9958 34.9749 25.8378 32.3753C26.5297 31.3988 26.9008 30.2314 26.8997 29.0347C26.8997 28.5033 26.4688 28.0724 25.9374 28.0724C25.406 28.0724 24.9751 28.5033 24.9751 29.0347C24.9751 31.1605 23.2518 32.8838 21.126 32.8838C19.0002 32.8838 17.2769 31.1605 17.2769 29.0347C17.2769 26.9089 19.0002 25.1856 21.126 25.1856C21.8111 25.1887 22.4828 25.3768 23.0698 25.7302L20.4457 28.3544C20.0634 28.7235 20.0528 29.3328 20.4221 29.715C20.7912 30.0973 21.4005 30.1079 21.7828 29.7386C21.7908 29.7309 21.7986 29.723 21.8063 29.715L25.2061 26.3153L37.8832 13.6382H43.2902C43.5474 13.6371 43.7934 13.5332 43.9735 13.3495L49.7221 7.55079C49.9947 7.2751 50.075 6.86276 49.9261 6.50479ZM38.4471 7.15337L42.2808 3.28596L42.2962 6.50479L38.4471 10.3539V7.15337ZM42.889 11.7136H39.8097L43.6588 7.8645L46.7227 7.8491L42.889 11.7136Z" fill="white"/>
</svg>
