<svg width="14" height="14" viewBox="0 0 14 14" fill="none" xmlns="http://www.w3.org/2000/svg">
<path d="M9.09 11.92C10.59 11.92 11.826 11.416 12.798 10.408L13.662 11.254C13.098 11.866 12.42 12.328 11.628 12.64C10.836 12.952 9.966 13.108 9.018 13.108C7.974 13.108 7.008 12.91 6.12 12.514C5.232 12.106 4.482 11.542 3.87 10.822C3.27 10.102 2.856 9.274 2.628 8.338H0.54V7.546H2.484C2.448 7.27 2.43 6.988 2.43 6.7C2.43 6.4 2.448 6.118 2.484 5.854H0.54V5.062H2.628C2.856 4.126 3.27 3.298 3.87 2.578C4.482 1.858 5.232 1.3 6.12 0.903999C7.008 0.495999 7.974 0.291999 9.018 0.291999C9.966 0.291999 10.836 0.448 11.628 0.76C12.42 1.072 13.098 1.528 13.662 2.128L12.798 2.974C11.814 1.978 10.578 1.48 9.09 1.48C7.866 1.48 6.792 1.81 5.868 2.47C4.956 3.13 4.338 3.994 4.014 5.062H10.188V5.854H3.816C3.78 6.118 3.762 6.4 3.762 6.7C3.762 6.988 3.78 7.27 3.816 7.546H10.188V8.338H4.014C4.338 9.406 4.956 10.27 5.868 10.93C6.792 11.59 7.866 11.92 9.09 11.92Z" fill="#A4A4A4"/>
</svg>
