<svg width="13" height="20" viewBox="0 0 13 20" fill="none" xmlns="http://www.w3.org/2000/svg">
<path d="M10.6689 1.83091C8.22768 -0.610303 4.27275 -0.610303 1.83091 1.83091C-0.610303 4.27087 -0.610303 8.22956 1.83091 10.6689C1.83091 10.6689 6.24709 15.0001 6.24709 20C6.24709 15.0001 10.6683 10.6689 10.6683 10.6689C13.1107 8.23018 13.1107 4.27087 10.6689 1.83091ZM6.24771 8.7533C4.86836 8.7533 3.75025 7.63519 3.75025 6.25334C3.75025 4.87149 4.86836 3.75338 6.24771 3.75338C7.63207 3.75338 8.75018 4.87149 8.75018 6.25334C8.75018 7.63519 7.63207 8.7533 6.24771 8.7533Z" fill="#0073FF"/>
</svg>
