<svg width="20" height="20" viewBox="0 0 20 20" fill="none" xmlns="http://www.w3.org/2000/svg">
<path d="M19.8781 19.2883L13.7932 13.2033C15.0565 11.8 15.8332 9.95002 15.8332 7.91667C15.8332 3.55167 12.2815 0 7.91656 0C3.5516 0 0 3.55167 0 7.91667C0 12.2817 3.55164 15.8333 7.9166 15.8333C9.9499 15.8333 11.7999 15.0567 13.2032 13.7925L19.2882 19.8775C19.3698 19.9592 19.4765 20 19.5832 20C19.6898 20 19.7965 19.9592 19.8782 19.8783C20.0406 19.715 20.0406 19.4516 19.8781 19.2883ZM7.9166 15C4.01082 15 0.833351 11.8225 0.833351 7.9167C0.833351 4.01089 4.01078 0.833358 7.9166 0.833358C11.8224 0.833358 14.9998 4.01085 14.9998 7.91667C14.9998 11.8225 11.8224 15 7.9166 15Z" fill="#0073FF"/>
</svg>
