<svg width="139" height="103" viewBox="0 0 139 103" fill="none" xmlns="http://www.w3.org/2000/svg">
<g opacity="0.8">
<path d="M38.8233 76L38.8153 72.648L37.1673 75.408H36.5913L34.9433 72.712V76H33.7273V70.4H34.7993L36.8953 73.88L38.9593 70.4H40.0313L40.0393 76H38.8233ZM41.4304 70.4H42.7184V74.048L45.3904 70.4H46.6064V76H45.3264V72.36L42.6544 76H41.4304V70.4ZM53.1367 70.4V76H51.8407V73.704H49.2967V76H48.0007V70.4H49.2967V72.608H51.8407V70.4H53.1367ZM54.5398 70.4H55.8278V74.048L58.4998 70.4H59.7158V76H58.4358V72.36L55.7638 76H54.5398V70.4ZM63.7581 76.096C63.1874 76.096 62.6701 75.9733 62.2061 75.728C61.7474 75.4773 61.3847 75.1333 61.1181 74.696C60.8567 74.2533 60.7261 73.7547 60.7261 73.2C60.7261 72.6453 60.8567 72.1493 61.1181 71.712C61.3847 71.2693 61.7474 70.9253 62.2061 70.68C62.6701 70.4293 63.1901 70.304 63.7661 70.304C64.2514 70.304 64.6887 70.3893 65.0781 70.56C65.4727 70.7307 65.8034 70.976 66.0701 71.296L65.2381 72.064C64.8594 71.6267 64.3901 71.408 63.8301 71.408C63.4834 71.408 63.1741 71.4853 62.9021 71.64C62.6301 71.7893 62.4167 72 62.2621 72.272C62.1127 72.544 62.0381 72.8533 62.0381 73.2C62.0381 73.5467 62.1127 73.856 62.2621 74.128C62.4167 74.4 62.6301 74.6133 62.9021 74.768C63.1741 74.9173 63.4834 74.992 63.8301 74.992C64.3901 74.992 64.8594 74.7707 65.2381 74.328L66.0701 75.096C65.8034 75.4213 65.4727 75.6693 65.0781 75.84C64.6834 76.0107 64.2434 76.096 63.7581 76.096ZM71.1401 71.456H69.3481V76H68.0681V71.456H66.2841V70.4H71.1401V71.456ZM76.2898 74.96V76H71.9538V70.4H76.1858V71.44H73.2418V72.656H75.8418V73.664H73.2418V74.96H76.2898ZM79.7606 70.4C80.2566 70.4 80.686 70.4827 81.0486 70.648C81.4166 70.8133 81.6993 71.048 81.8966 71.352C82.094 71.656 82.1926 72.016 82.1926 72.432C82.1926 72.8427 82.094 73.2027 81.8966 73.512C81.6993 73.816 81.4166 74.0507 81.0486 74.216C80.686 74.376 80.2566 74.456 79.7606 74.456H78.6326V76H77.3366V70.4H79.7606ZM79.6886 73.4C80.078 73.4 80.374 73.3173 80.5766 73.152C80.7793 72.9813 80.8806 72.7413 80.8806 72.432C80.8806 72.1173 80.7793 71.8773 80.5766 71.712C80.374 71.5413 80.078 71.456 79.6886 71.456H78.6326V73.4H79.6886ZM85.7737 76.096C85.203 76.096 84.6857 75.9733 84.2217 75.728C83.763 75.4773 83.4004 75.1333 83.1337 74.696C82.8724 74.2533 82.7417 73.7547 82.7417 73.2C82.7417 72.6453 82.8724 72.1493 83.1337 71.712C83.4004 71.2693 83.763 70.9253 84.2217 70.68C84.6857 70.4293 85.2057 70.304 85.7817 70.304C86.267 70.304 86.7044 70.3893 87.0937 70.56C87.4884 70.7307 87.819 70.976 88.0857 71.296L87.2537 72.064C86.875 71.6267 86.4057 71.408 85.8457 71.408C85.499 71.408 85.1897 71.4853 84.9177 71.64C84.6457 71.7893 84.4324 72 84.2777 72.272C84.1284 72.544 84.0537 72.8533 84.0537 73.2C84.0537 73.5467 84.1284 73.856 84.2777 74.128C84.4324 74.4 84.6457 74.6133 84.9177 74.768C85.1897 74.9173 85.499 74.992 85.8457 74.992C86.4057 74.992 86.875 74.7707 87.2537 74.328L88.0857 75.096C87.819 75.4213 87.4884 75.6693 87.0937 75.84C86.699 76.0107 86.259 76.096 85.7737 76.096ZM93.1557 71.456H91.3637V76H90.0837V71.456H88.2997V70.4H93.1557V71.456ZM97.8494 73.08C98.1908 73.1813 98.4521 73.3467 98.6334 73.576C98.8148 73.8053 98.9054 74.088 98.9054 74.424C98.9054 74.92 98.7161 75.3067 98.3374 75.584C97.9641 75.8613 97.4281 76 96.7294 76H93.9694V70.4H96.5774C97.2281 70.4 97.7348 70.5253 98.0974 70.776C98.4601 71.0267 98.6414 71.384 98.6414 71.848C98.6414 72.1253 98.5721 72.3707 98.4334 72.584C98.2948 72.792 98.1001 72.9573 97.8494 73.08ZM95.2574 72.72H96.4654C96.7481 72.72 96.9614 72.664 97.1054 72.552C97.2494 72.4347 97.3214 72.264 97.3214 72.04C97.3214 71.8213 97.2468 71.6533 97.0974 71.536C96.9534 71.4187 96.7428 71.36 96.4654 71.36H95.2574V72.72ZM96.6814 75.04C97.2894 75.04 97.5934 74.8 97.5934 74.32C97.5934 73.856 97.2894 73.624 96.6814 73.624H95.2574V75.04H96.6814ZM102.602 76.096C102.021 76.096 101.496 75.9707 101.026 75.72C100.562 75.4693 100.197 75.1253 99.9304 74.688C99.669 74.2453 99.5384 73.7493 99.5384 73.2C99.5384 72.6507 99.669 72.1573 99.9304 71.72C100.197 71.2773 100.562 70.9307 101.026 70.68C101.496 70.4293 102.021 70.304 102.602 70.304C103.184 70.304 103.706 70.4293 104.17 70.68C104.634 70.9307 105 71.2773 105.266 71.72C105.533 72.1573 105.666 72.6507 105.666 73.2C105.666 73.7493 105.533 74.2453 105.266 74.688C105 75.1253 104.634 75.4693 104.17 75.72C103.706 75.9707 103.184 76.096 102.602 76.096ZM102.602 74.992C102.933 74.992 103.232 74.9173 103.498 74.768C103.765 74.6133 103.973 74.4 104.122 74.128C104.277 73.856 104.354 73.5467 104.354 73.2C104.354 72.8533 104.277 72.544 104.122 72.272C103.973 72 103.765 71.7893 103.498 71.64C103.232 71.4853 102.933 71.408 102.602 71.408C102.272 71.408 101.973 71.4853 101.706 71.64C101.44 71.7893 101.229 72 101.074 72.272C100.925 72.544 100.85 72.8533 100.85 73.2C100.85 73.5467 100.925 73.856 101.074 74.128C101.229 74.4 101.44 74.6133 101.706 74.768C101.973 74.9173 102.272 74.992 102.602 74.992ZM18.1336 88.096C17.5523 88.096 17.027 87.9707 16.5576 87.72C16.0936 87.4693 15.7283 87.1253 15.4616 86.688C15.2003 86.2453 15.0696 85.7493 15.0696 85.2C15.0696 84.6507 15.2003 84.1573 15.4616 83.72C15.7283 83.2773 16.0936 82.9307 16.5576 82.68C17.027 82.4293 17.5523 82.304 18.1336 82.304C18.715 82.304 19.2376 82.4293 19.7016 82.68C20.1656 82.9307 20.531 83.2773 20.7976 83.72C21.0643 84.1573 21.1976 84.6507 21.1976 85.2C21.1976 85.7493 21.0643 86.2453 20.7976 86.688C20.531 87.1253 20.1656 87.4693 19.7016 87.72C19.2376 87.9707 18.715 88.096 18.1336 88.096ZM18.1336 86.992C18.4643 86.992 18.763 86.9173 19.0296 86.768C19.2963 86.6133 19.5043 86.4 19.6536 86.128C19.8083 85.856 19.8856 85.5467 19.8856 85.2C19.8856 84.8533 19.8083 84.544 19.6536 84.272C19.5043 84 19.2963 83.7893 19.0296 83.64C18.763 83.4853 18.4643 83.408 18.1336 83.408C17.803 83.408 17.5043 83.4853 17.2376 83.64C16.971 83.7893 16.7603 84 16.6056 84.272C16.4563 84.544 16.3816 84.8533 16.3816 85.2C16.3816 85.5467 16.4563 85.856 16.6056 86.128C16.7603 86.4 16.971 86.6133 17.2376 86.768C17.5043 86.9173 17.803 86.992 18.1336 86.992ZM22.196 82.4H26.716V83.432H23.484V84.584H25.036C25.7133 84.584 26.228 84.7253 26.58 85.008C26.9373 85.2907 27.116 85.6987 27.116 86.232C27.116 86.792 26.9187 87.2267 26.524 87.536C26.1293 87.8453 25.572 88 24.852 88H22.196V82.4ZM24.78 87.04C25.1107 87.04 25.364 86.976 25.54 86.848C25.716 86.7147 25.804 86.5227 25.804 86.272C25.804 85.7813 25.4627 85.536 24.78 85.536H23.484V87.04H24.78ZM30.5263 82.4C31.0223 82.4 31.4516 82.4827 31.8142 82.648C32.1823 82.8133 32.4649 83.048 32.6623 83.352C32.8596 83.656 32.9583 84.016 32.9583 84.432C32.9583 84.8427 32.8596 85.2027 32.6623 85.512C32.4649 85.816 32.1823 86.0507 31.8142 86.216C31.4516 86.376 31.0223 86.456 30.5263 86.456H29.3983V88H28.1023V82.4H30.5263ZM30.4543 85.4C30.8436 85.4 31.1396 85.3173 31.3423 85.152C31.5449 84.9813 31.6463 84.7413 31.6463 84.432C31.6463 84.1173 31.5449 83.8773 31.3423 83.712C31.1396 83.5413 30.8436 83.456 30.4543 83.456H29.3983V85.4H30.4543ZM37.3239 86.8H34.7239L34.2279 88H32.8999L35.3959 82.4H36.6759L39.1799 88H37.8199L37.3239 86.8ZM36.9159 85.816L36.0279 83.672L35.1399 85.816H36.9159ZM43.1066 85.08C43.4319 85.192 43.6852 85.368 43.8666 85.608C44.0532 85.8427 44.1466 86.1173 44.1466 86.432C44.1466 86.7733 44.0346 87.0693 43.8106 87.32C43.5866 87.5707 43.2826 87.7627 42.8986 87.896C42.5199 88.0293 42.1039 88.096 41.6506 88.096C41.2666 88.096 40.8826 88.048 40.4986 87.952C40.1199 87.856 39.7599 87.7093 39.4186 87.512L39.8186 86.584C40.0639 86.7333 40.3332 86.848 40.6266 86.928C40.9252 87.0027 41.2159 87.04 41.4986 87.04C41.8826 87.04 42.1999 86.9707 42.4506 86.832C42.7066 86.6933 42.8346 86.4987 42.8346 86.248C42.8346 86.04 42.7466 85.8827 42.5706 85.776C42.3999 85.6693 42.1652 85.616 41.8666 85.616H40.4986V84.64H41.7706C42.0319 84.64 42.2346 84.5867 42.3786 84.48C42.5279 84.3733 42.6026 84.2267 42.6026 84.04C42.6026 83.8213 42.4959 83.6507 42.2826 83.528C42.0746 83.4053 41.8052 83.344 41.4746 83.344C41.2292 83.344 40.9759 83.3787 40.7146 83.448C40.4532 83.512 40.2052 83.6107 39.9706 83.744L39.5786 82.736C40.1706 82.432 40.8106 82.28 41.4986 82.28C41.9359 82.28 42.3386 82.344 42.7066 82.472C43.0746 82.6 43.3679 82.7867 43.5866 83.032C43.8052 83.2773 43.9146 83.5627 43.9146 83.888C43.9146 84.1547 43.8426 84.392 43.6986 84.6C43.5546 84.808 43.3572 84.968 43.1066 85.08ZM47.8446 88.096C47.2632 88.096 46.7379 87.9707 46.2686 87.72C45.8046 87.4693 45.4392 87.1253 45.1726 86.688C44.9112 86.2453 44.7806 85.7493 44.7806 85.2C44.7806 84.6507 44.9112 84.1573 45.1726 83.72C45.4392 83.2773 45.8046 82.9307 46.2686 82.68C46.7379 82.4293 47.2632 82.304 47.8446 82.304C48.4259 82.304 48.9486 82.4293 49.4126 82.68C49.8766 82.9307 50.2419 83.2773 50.5086 83.72C50.7752 84.1573 50.9086 84.6507 50.9086 85.2C50.9086 85.7493 50.7752 86.2453 50.5086 86.688C50.2419 87.1253 49.8766 87.4693 49.4126 87.72C48.9486 87.9707 48.4259 88.096 47.8446 88.096ZM47.8446 86.992C48.1752 86.992 48.4739 86.9173 48.7406 86.768C49.0072 86.6133 49.2152 86.4 49.3646 86.128C49.5192 85.856 49.5966 85.5467 49.5966 85.2C49.5966 84.8533 49.5192 84.544 49.3646 84.272C49.2152 84 49.0072 83.7893 48.7406 83.64C48.4739 83.4853 48.1752 83.408 47.8446 83.408C47.5139 83.408 47.2152 83.4853 46.9486 83.64C46.6819 83.7893 46.4712 84 46.3166 84.272C46.1672 84.544 46.0926 84.8533 46.0926 85.2C46.0926 85.5467 46.1672 85.856 46.3166 86.128C46.4712 86.4 46.6819 86.6133 46.9486 86.768C47.2152 86.9173 47.5139 86.992 47.8446 86.992ZM55.7869 85.08C56.1283 85.1813 56.3896 85.3467 56.5709 85.576C56.7523 85.8053 56.8429 86.088 56.8429 86.424C56.8429 86.92 56.6536 87.3067 56.2749 87.584C55.9016 87.8613 55.3656 88 54.6669 88H51.9069V82.4H54.5149C55.1656 82.4 55.6723 82.5253 56.0349 82.776C56.3976 83.0267 56.5789 83.384 56.5789 83.848C56.5789 84.1253 56.5096 84.3707 56.3709 84.584C56.2323 84.792 56.0376 84.9573 55.7869 85.08ZM53.1949 84.72H54.4029C54.6856 84.72 54.8989 84.664 55.0429 84.552C55.1869 84.4347 55.2589 84.264 55.2589 84.04C55.2589 83.8213 55.1843 83.6533 55.0349 83.536C54.8909 83.4187 54.6803 83.36 54.4029 83.36H53.1949V84.72ZM54.6189 87.04C55.2269 87.04 55.5309 86.8 55.5309 86.32C55.5309 85.856 55.2269 85.624 54.6189 85.624H53.1949V87.04H54.6189ZM61.6599 86.8H59.0599L58.5639 88H57.2359L59.7319 82.4H61.0119L63.5159 88H62.1559L61.6599 86.8ZM61.2519 85.816L60.3639 83.672L59.4759 85.816H61.2519ZM69.3945 82.4V88H68.0985V85.704H65.5545V88H64.2585V82.4H65.5545V84.608H68.0985V82.4H69.3945ZM70.7976 82.4H72.0856V86.048L74.7576 82.4H75.9736V88H74.6936V84.36L72.0216 88H70.7976V82.4ZM81.8399 82.4V88H80.5599V86.512H79.3759L78.3839 88H77.0159L78.1839 86.312C77.8052 86.1573 77.5145 85.9253 77.3119 85.616C77.1092 85.3013 77.0079 84.9253 77.0079 84.488C77.0079 84.056 77.1065 83.6853 77.3039 83.376C77.5012 83.0613 77.7812 82.8213 78.1439 82.656C78.5065 82.4853 78.9332 82.4 79.4239 82.4H81.8399ZM79.4559 83.456C79.0879 83.456 78.8052 83.5413 78.6079 83.712C78.4159 83.8827 78.3199 84.136 78.3199 84.472C78.3199 84.7973 78.4132 85.048 78.5999 85.224C78.7865 85.4 79.0612 85.488 79.4239 85.488H80.5599V83.456H79.4559ZM85.5085 82.4H86.7965V86.048L89.4685 82.4H90.6845V88H89.4045V84.36L86.7325 88H85.5085V82.4ZM99.4804 82.4V88H98.1844V85.704H95.6404V88H94.3444V82.4H95.6404V84.608H98.1844V82.4H99.4804ZM104.676 86.8H102.076L101.58 88H100.252L102.748 82.4H104.028L106.532 88H105.172L104.676 86.8ZM104.268 85.816L103.38 83.672L102.492 85.816H104.268ZM112.041 82.4L109.657 86.832C109.428 87.2587 109.15 87.5813 108.825 87.8C108.505 88.0187 108.156 88.128 107.777 88.128C107.484 88.128 107.18 88.064 106.865 87.936L107.177 86.952C107.401 87.0213 107.588 87.056 107.737 87.056C107.897 87.056 108.041 87.0187 108.169 86.944C108.297 86.864 108.414 86.7413 108.521 86.576L108.569 86.512L106.361 82.4H107.745L109.233 85.408L110.769 82.4H112.041ZM114.825 85.744H113.929V88H112.641V82.4H113.929V84.664H114.857L116.329 82.4H117.697L115.865 85.104L117.753 88H116.281L114.825 85.744ZM118.36 82.4H119.648V86.048L122.32 82.4H123.536V88H122.256V84.36L119.584 88H118.36V82.4ZM16.5968 94.4V100H15.3168V97.984C14.8314 98.16 14.3808 98.248 13.9648 98.248C13.2128 98.248 12.6368 98.0693 12.2368 97.712C11.8368 97.3493 11.6368 96.8293 11.6368 96.152V94.4H12.9168V96.008C12.9168 96.392 13.0181 96.6827 13.2208 96.88C13.4288 97.072 13.7274 97.168 14.1168 97.168C14.5434 97.168 14.9434 97.0853 15.3168 96.92V94.4H16.5968ZM22.325 98.96V100H17.989V94.4H22.221V95.44H19.277V96.656H21.877V97.664H19.277V98.96H22.325ZM27.9718 94.4V100H26.6918V97.984C26.2064 98.16 25.7558 98.248 25.3398 98.248C24.5878 98.248 24.0118 98.0693 23.6118 97.712C23.2118 97.3493 23.0118 96.8293 23.0118 96.152V94.4H24.2918V96.008C24.2918 96.392 24.3931 96.6827 24.5958 96.88C24.8038 97.072 25.1024 97.168 25.4918 97.168C25.9184 97.168 26.3184 97.0853 26.6918 96.92V94.4H27.9718ZM33.7 98.96V100H29.364V94.4H33.596V95.44H30.652V96.656H33.252V97.664H30.652V98.96H33.7ZM39.8828 94.4V100H38.5868V97.704H36.0428V100H34.7468V94.4H36.0428V96.608H38.5868V94.4H39.8828ZM43.9338 100.096C43.3632 100.096 42.8458 99.9733 42.3818 99.728C41.9232 99.4773 41.5605 99.1333 41.2938 98.696C41.0325 98.2533 40.9018 97.7547 40.9018 97.2C40.9018 96.6453 41.0325 96.1493 41.2938 95.712C41.5605 95.2693 41.9232 94.9253 42.3818 94.68C42.8458 94.4293 43.3658 94.304 43.9418 94.304C44.4272 94.304 44.8645 94.3893 45.2538 94.56C45.6485 94.7307 45.9792 94.976 46.2458 95.296L45.4138 96.064C45.0352 95.6267 44.5658 95.408 44.0058 95.408C43.6592 95.408 43.3498 95.4853 43.0778 95.64C42.8058 95.7893 42.5925 96 42.4378 96.272C42.2885 96.544 42.2138 96.8533 42.2138 97.2C42.2138 97.5467 42.2885 97.856 42.4378 98.128C42.5925 98.4 42.8058 98.6133 43.0778 98.768C43.3498 98.9173 43.6592 98.992 44.0058 98.992C44.5658 98.992 45.0352 98.7707 45.4138 98.328L46.2458 99.096C45.9792 99.4213 45.6485 99.6693 45.2538 99.84C44.8592 100.011 44.4192 100.096 43.9338 100.096ZM49.2585 97.744H48.3625V100H47.0745V94.4H48.3625V96.664H49.2905L50.7625 94.4H52.1305L50.2985 97.104L52.1865 100H50.7145L49.2585 97.744ZM55.4422 100.096C54.8609 100.096 54.3356 99.9707 53.8662 99.72C53.4022 99.4693 53.0369 99.1253 52.7702 98.688C52.5089 98.2453 52.3782 97.7493 52.3782 97.2C52.3782 96.6507 52.5089 96.1573 52.7702 95.72C53.0369 95.2773 53.4022 94.9307 53.8662 94.68C54.3356 94.4293 54.8609 94.304 55.4422 94.304C56.0236 94.304 56.5462 94.4293 57.0102 94.68C57.4742 94.9307 57.8396 95.2773 58.1062 95.72C58.3729 96.1573 58.5062 96.6507 58.5062 97.2C58.5062 97.7493 58.3729 98.2453 58.1062 98.688C57.8396 99.1253 57.4742 99.4693 57.0102 99.72C56.5462 99.9707 56.0236 100.096 55.4422 100.096ZM55.4422 98.992C55.7729 98.992 56.0716 98.9173 56.3382 98.768C56.6049 98.6133 56.8129 98.4 56.9622 98.128C57.1169 97.856 57.1942 97.5467 57.1942 97.2C57.1942 96.8533 57.1169 96.544 56.9622 96.272C56.8129 96 56.6049 95.7893 56.3382 95.64C56.0716 95.4853 55.7729 95.408 55.4422 95.408C55.1116 95.408 54.8129 95.4853 54.5462 95.64C54.2796 95.7893 54.0689 96 53.9142 96.272C53.7649 96.544 53.6902 96.8533 53.6902 97.2C53.6902 97.5467 53.7649 97.856 53.9142 98.128C54.0689 98.4 54.2796 98.6133 54.5462 98.768C54.8129 98.9173 55.1116 98.992 55.4422 98.992ZM59.5046 94.4H60.7926V98.048L63.4646 94.4H64.6806V100H63.4006V96.36L60.7286 100H59.5046V94.4ZM62.0886 94.04C61.0646 94.04 60.5473 93.632 60.5366 92.816H61.4246C61.4353 93.2053 61.6566 93.4 62.0886 93.4C62.3019 93.4 62.4646 93.352 62.5766 93.256C62.6886 93.1547 62.7473 93.008 62.7526 92.816H63.6406C63.6353 93.216 63.5046 93.52 63.2486 93.728C62.9926 93.936 62.6059 94.04 62.0886 94.04ZM70.7645 94.4C71.2605 94.4 71.6899 94.4827 72.0525 94.648C72.4205 94.8133 72.7032 95.048 72.9005 95.352C73.0979 95.656 73.1965 96.016 73.1965 96.432C73.1965 96.8427 73.0979 97.2027 72.9005 97.512C72.7032 97.816 72.4205 98.0507 72.0525 98.216C71.6899 98.376 71.2605 98.456 70.7645 98.456H69.6365V100H68.3405V94.4H70.7645ZM70.6925 97.4C71.0819 97.4 71.3779 97.3173 71.5805 97.152C71.7832 96.9813 71.8845 96.7413 71.8845 96.432C71.8845 96.1173 71.7832 95.8773 71.5805 95.712C71.3779 95.5413 71.0819 95.456 70.6925 95.456H69.6365V97.4H70.6925ZM78.3875 98.96V100H74.0515V94.4H78.2835V95.44H75.3395V96.656H77.9395V97.664H75.3395V98.96H78.3875ZM82.0667 100.096C81.496 100.096 80.9787 99.9733 80.5147 99.728C80.056 99.4773 79.6933 99.1333 79.4267 98.696C79.1653 98.2533 79.0347 97.7547 79.0347 97.2C79.0347 96.6453 79.1653 96.1493 79.4267 95.712C79.6933 95.2693 80.056 94.9253 80.5147 94.68C80.9787 94.4293 81.4987 94.304 82.0747 94.304C82.56 94.304 82.9973 94.3893 83.3867 94.56C83.7813 94.7307 84.112 94.976 84.3787 95.296L83.5467 96.064C83.168 95.6267 82.6987 95.408 82.1387 95.408C81.792 95.408 81.4827 95.4853 81.2107 95.64C80.9387 95.7893 80.7253 96 80.5707 96.272C80.4213 96.544 80.3467 96.8533 80.3467 97.2C80.3467 97.5467 80.4213 97.856 80.5707 98.128C80.7253 98.4 80.9387 98.6133 81.2107 98.768C81.4827 98.9173 81.792 98.992 82.1387 98.992C82.6987 98.992 83.168 98.7707 83.5467 98.328L84.3787 99.096C84.112 99.4213 83.7813 99.6693 83.3867 99.84C82.992 100.011 82.552 100.096 82.0667 100.096ZM90.3273 94.4V100H89.0393V95.456H86.5113V100H85.2233V94.4H90.3273ZM96.7715 94.4L94.3875 98.832C94.1582 99.2587 93.8809 99.5813 93.5555 99.8C93.2355 100.019 92.8862 100.128 92.5075 100.128C92.2142 100.128 91.9102 100.064 91.5955 99.936L91.9075 98.952C92.1315 99.0213 92.3182 99.056 92.4675 99.056C92.6275 99.056 92.7715 99.0187 92.8995 98.944C93.0275 98.864 93.1449 98.7413 93.2515 98.576L93.2995 98.512L91.0915 94.4H92.4755L93.9635 97.408L95.4995 94.4H96.7715ZM97.3874 94.4H101.907V95.432H98.6754V96.584H100.227C100.905 96.584 101.419 96.7253 101.771 97.008C102.129 97.2907 102.307 97.6987 102.307 98.232C102.307 98.792 102.11 99.2267 101.715 99.536C101.321 99.8453 100.763 100 100.043 100H97.3874V94.4ZM99.9714 99.04C100.302 99.04 100.555 98.976 100.731 98.848C100.907 98.7147 100.995 98.5227 100.995 98.272C100.995 97.7813 100.654 97.536 99.9714 97.536H98.6754V99.04H99.9714ZM108.153 94.4V100H106.873V95.456H104.953L104.913 96.624C104.886 97.4187 104.822 98.064 104.721 98.56C104.62 99.0507 104.449 99.4293 104.209 99.696C103.974 99.9573 103.644 100.088 103.217 100.088C103.041 100.088 102.828 100.059 102.577 100L102.657 98.904C102.726 98.9253 102.804 98.936 102.889 98.936C103.198 98.936 103.414 98.7547 103.537 98.392C103.66 98.024 103.737 97.4507 103.769 96.672L103.849 94.4H108.153ZM109.551 94.4H110.839V98.048L113.511 94.4H114.727V100H113.447V96.36L110.775 100H109.551V94.4ZM118.29 97.744H117.394V100H116.106V94.4H117.394V96.664H118.322L119.794 94.4H121.162L119.33 97.104L121.218 100H119.746L118.29 97.744ZM121.825 94.4H123.113V98.048L125.785 94.4H127.001V100H125.721V96.36L123.049 100H121.825V94.4Z" fill="white"/>
<path d="M54.6221 18.3574L68.1627 26.9089V53.4796L57.9185 45.3353L54.6221 18.3574Z" fill="white" stroke="white" stroke-width="0.162452"/>
<path d="M82.1434 18.3574L68.6631 26.9081V53.4764L78.8617 45.3329L82.1434 18.3574Z" fill="white" stroke="white" stroke-width="0.162083"/>
<path d="M44.6972 5.82324L35.9998 13.7841L47.5018 38.1871L51.3223 40.9056L44.6972 5.82324Z" fill="white"/>
<path d="M44.6972 5.82324L35.9998 13.7841L47.5018 38.1871L51.3223 40.9056L44.6972 5.82324" stroke="#FF151C" stroke-width="0.065"/>
<path d="M51.3229 0.319336L68.4149 11.1934L85.062 0.319336L91.3401 5.02893L68.4149 20.6892L45.5273 5.32248L51.3229 0.319336Z" fill="white" stroke="white" stroke-width="0.165"/>
<path d="M44.6403 5.87412L44.5176 5.84812L44.7708 5.60938L44.866 6.32081" fill="white"/>
<path d="M92.0578 5.37695L100.755 13.3378L89.2531 37.7408L85.0615 40.906L92.0578 5.37695Z" fill="white"/>
<path d="M92.0578 5.37695L100.755 13.3378L89.2531 37.7408L85.0615 40.906L92.0578 5.37695" stroke="#FF151C" stroke-width="0.065"/>
<path d="M92.1104 5.4249L92.2332 5.3989L91.98 5.16016L91.8848 5.87159" fill="white"/>
<path opacity="0.261438" d="M68.4219 10.8878V53.8978L89.2607 37.5928L91.9879 4.81835L85.0613 0L68.4219 10.8878Z" fill="url(#paint0_linear)"/>
</g>
<defs>
<linearGradient id="paint0_linear" x1="68.4219" y1="26.9234" x2="91.9879" y2="26.9234" gradientUnits="userSpaceOnUse">
<stop stop-color="#02181F"/>
<stop offset="1" stop-color="#02181F" stop-opacity="0"/>
</linearGradient>
</defs>
</svg>
