<svg width="151" height="81" viewBox="0 0 151 81" fill="none" xmlns="http://www.w3.org/2000/svg">
<path opacity="0.8" fill-rule="evenodd" clip-rule="evenodd" d="M151 0H38.3249V3.06599H147.934V42.1574H151V3.06599V1.1812e-06V0ZM35.2589 0.000523369H3.06599V4.9959e-06H0V0.000523369V3.06651V77.4162V80.4822L3.06599 80.4822H147.934L151 80.4822V77.4162V45.2234H147.934V77.4162H3.06599V3.06651H35.2589V0.000523369ZM38.3249 42.1574H144.868V45.2234H38.3249H35.2589V42.1574V6.13198H38.3249V42.1574ZM52.9602 25.0545C54.0639 25.68 54.6158 26.6304 54.6158 27.9059C54.6158 29.0832 54.2295 30.0091 53.4569 30.6837C52.6965 31.3582 51.5866 31.6954 50.1272 31.6954H44.682V18.8183H49.7961C51.2432 18.8183 52.347 19.131 53.1074 19.7565C53.8677 20.3819 54.2479 21.2772 54.2479 22.4423C54.2479 23.5583 53.8187 24.429 52.9602 25.0545ZM49.5753 21.9824H48.3612V23.7116L49.7777 23.6932C50.305 23.6196 50.5687 23.3375 50.5687 22.847C50.5687 22.5649 50.4706 22.3503 50.2744 22.2031C50.0782 22.056 49.8451 21.9824 49.5753 21.9824ZM49.9065 28.5313C50.2008 28.5313 50.4461 28.4455 50.6423 28.2738C50.8385 28.1021 50.9366 27.8813 50.9366 27.6115C50.9366 27.0964 50.6607 26.796 50.1088 26.7101L48.3612 26.6917V28.5313H49.9065ZM58.8512 28.2554C59.1455 28.8686 59.771 29.1752 60.7276 29.1752C61.2917 29.1752 61.8129 28.979 62.2912 28.5865L64.5172 30.4629C63.5974 31.4563 62.2974 31.953 60.6172 31.953C59.0474 31.953 57.7842 31.4992 56.8276 30.5917C55.8833 29.6719 55.4112 28.5191 55.4112 27.1332C55.4112 25.7351 55.8711 24.5701 56.7909 23.638C57.7229 22.7059 58.8941 22.2399 60.3045 22.2399C61.7026 22.2399 62.8493 22.6998 63.7445 23.6196C64.6521 24.5271 65.1058 25.6738 65.1058 27.0597C65.1058 27.4644 65.0568 27.8629 64.9586 28.2554H58.8512ZM58.796 26.0663H61.8865C61.678 25.3304 61.1814 24.9625 60.3965 24.9625C59.5993 24.9625 59.0658 25.3304 58.796 26.0663ZM71.7205 22.4975H75.1237V31.6954H71.7205V28.7153H69.5129V31.6954H66.1097V22.4975H69.5129V25.4776H71.7205V22.4975ZM81.66 22.4975H85.0633V31.6954H81.66V29.304C81.0959 29.4389 80.544 29.5063 80.0044 29.5063C78.8884 29.5063 77.9808 29.1997 77.2818 28.5865C76.5827 27.9611 76.2332 27.0964 76.2332 25.9927V22.4975H79.6365V25.2569C79.6365 26.005 80.035 26.379 80.8322 26.379C81.1265 26.379 81.4025 26.3422 81.66 26.2686V22.4975ZM92.4223 22.4975H96.2855L93.2318 31.4195C92.7535 32.8298 91.9931 33.8539 90.9507 34.4916C89.9205 35.1416 88.688 35.4359 87.2531 35.3746V32.1553C87.8786 32.1553 88.3568 32.1063 88.688 32.0082C89.0191 31.9223 89.2828 31.7568 89.479 31.5115L85.7998 22.4975H89.663L91.3002 27.4092L92.4223 22.4975ZM102.895 22.2399C104.134 22.2399 105.146 22.6998 105.931 23.6196C106.716 24.5394 107.108 25.6984 107.108 27.0964C107.108 28.4945 106.716 29.6535 105.931 30.5733C105.146 31.4931 104.134 31.953 102.895 31.953C101.841 31.953 101.019 31.5912 100.43 30.8676V35.3746H97.0271V22.4975H100.43V23.3253C101.019 22.6017 101.841 22.2399 102.895 22.2399ZM100.872 28.329C101.178 28.6601 101.577 28.8257 102.068 28.8257C102.558 28.8257 102.951 28.6601 103.245 28.329C103.552 27.9978 103.705 27.587 103.705 27.0964C103.705 26.6059 103.552 26.195 103.245 25.8639C102.951 25.5328 102.558 25.3672 102.068 25.3672C101.577 25.3672 101.178 25.5328 100.872 25.8639C100.577 26.195 100.43 26.6059 100.43 27.0964C100.43 27.587 100.577 27.9978 100.872 28.329ZM113.794 22.4975H117.197V31.6954H113.794V28.7153H111.586V31.6954H108.183V22.4975H111.586V25.4776H113.794V22.4975ZM123.531 24.8889C124.647 24.8889 125.524 25.1955 126.162 25.8087C126.812 26.4097 127.137 27.2375 127.137 28.2922C127.137 29.3469 126.812 30.1808 126.162 30.794C125.524 31.395 124.647 31.6954 123.531 31.6954H118.675V22.4975H122.078V24.8889H123.531ZM127.689 22.4975H131.092V31.6954H127.689V22.4975ZM123.108 28.936C123.586 28.936 123.826 28.7214 123.826 28.2922C123.826 27.8629 123.586 27.6483 123.108 27.6483H122.078V28.936H123.108ZM133.941 21.5961V18.8367H140.38V21.5961H133.941ZM139.018 22.4975H141.759V31.6954H138.448V27.7403L135.302 31.6954H132.561V22.4975H135.873V26.4526L139.018 22.4975ZM21.6198 66.9272L22.0981 68.7208H26.3828L21.9387 54.7706H17.2753L12.8312 68.7208H17.1159L17.5942 66.9272H21.6198ZM20.7629 63.7386H18.4511L19.607 59.4539L20.7629 63.7386ZM33.0621 68.7208H37.1476L33.9191 63.7386L36.9483 58.7563H32.7632L30.6707 62.6226V58.7563H26.9838V68.7208H30.6707V64.735L33.0621 68.7208ZM38.3164 67.5051C39.3261 68.5016 40.5949 68.9998 42.1228 68.9998C43.106 68.9998 44.0028 68.7673 44.8132 68.3023C45.6369 67.8373 46.268 67.1996 46.7065 66.3891L43.5975 64.5955C43.3053 65.1668 42.8137 65.4525 42.1228 65.4525C41.6578 65.4525 41.2659 65.293 40.947 64.9742C40.6414 64.642 40.4886 64.2302 40.4886 63.7386C40.4886 63.247 40.6414 62.8418 40.947 62.5229C41.2659 62.1908 41.6578 62.0247 42.1228 62.0247C42.7738 62.0247 43.2654 62.3037 43.5975 62.8617L46.7065 61.088C46.268 60.2909 45.6369 59.6598 44.8132 59.1948C44.0028 58.7165 43.106 58.4773 42.1228 58.4773C40.5949 58.4773 39.3261 58.9822 38.3164 59.9919C37.3066 60.9884 36.8018 62.2373 36.8018 63.7386C36.8018 65.2399 37.3066 66.4954 38.3164 67.5051ZM52.7398 65.9905C51.7035 65.9905 51.0259 65.6584 50.707 64.9941H57.3234C57.4297 64.569 57.4829 64.1372 57.4829 63.6987C57.4829 62.1974 56.9913 60.9552 56.0081 59.972C55.0383 58.9756 53.796 58.4773 52.2814 58.4773C50.7535 58.4773 49.4847 58.9822 48.475 59.9919C47.4786 61.0017 46.9803 62.2638 46.9803 63.7784C46.9803 65.2798 47.4918 66.5286 48.5149 67.5251C49.5512 68.5082 50.9196 68.9998 52.6202 68.9998C54.4404 68.9998 55.8487 68.4617 56.8452 67.3856L54.4338 65.3528C53.9156 65.778 53.3509 65.9905 52.7398 65.9905ZM53.9953 62.6226H50.6473C50.9395 61.8254 51.5175 61.4268 52.3811 61.4268C53.2314 61.4268 53.7695 61.8254 53.9953 62.6226ZM64.596 68.7208H68.2828V58.7563H59.1155V63.7984C59.1155 64.4627 58.9959 64.921 58.7568 65.1735C58.5309 65.4126 58.1722 65.4658 57.6806 65.3329V68.7208C59.4742 68.9068 60.7762 68.6743 61.5867 68.0233C62.3971 67.359 62.8023 66.2164 62.8023 64.5955V62.2638H64.596V68.7208ZM75.1598 65.9905C74.1235 65.9905 73.446 65.6584 73.1271 64.9941H79.7435C79.8498 64.569 79.9029 64.1372 79.9029 63.6987C79.9029 62.1974 79.4113 60.9552 78.4282 59.972C77.4583 58.9756 76.2161 58.4773 74.7015 58.4773C73.1736 58.4773 71.9048 58.9822 70.8951 59.9919C69.8986 61.0017 69.4004 62.2638 69.4004 63.7784C69.4004 65.2798 69.9119 66.5286 70.9349 67.5251C71.9712 68.5082 73.3397 68.9998 75.0403 68.9998C76.8604 68.9998 78.2688 68.4617 79.2652 67.3856L76.8538 65.3528C76.3356 65.778 75.771 65.9905 75.1598 65.9905ZM76.4154 62.6226H73.0673C73.3596 61.8254 73.9375 61.4268 74.8011 61.4268C75.6514 61.4268 76.1895 61.8254 76.4154 62.6226ZM90.6361 59.972C89.7858 58.9756 88.6897 58.4773 87.3478 58.4773C86.2052 58.4773 85.315 58.8693 84.6773 59.6531V58.7563H80.9905V72.7066H84.6773V67.824C85.315 68.6079 86.2052 68.9998 87.3478 68.9998C88.6897 68.9998 89.7858 68.5016 90.6361 67.5051C91.4864 66.5087 91.9115 65.2532 91.9115 63.7386C91.9115 62.224 91.4864 60.9685 90.6361 59.972ZM86.451 65.6119C85.9195 65.6119 85.4878 65.4325 85.1556 65.0738C84.8367 64.7151 84.6773 64.27 84.6773 63.7386C84.6773 63.2071 84.8367 62.7621 85.1556 62.4033C85.4878 62.0446 85.9195 61.8653 86.451 61.8653C86.9824 61.8653 87.4076 62.0446 87.7264 62.4033C88.0586 62.7621 88.2247 63.2071 88.2247 63.7386C88.2247 64.27 88.0586 64.7151 87.7264 65.0738C87.4076 65.4325 86.9824 65.6119 86.451 65.6119ZM103.559 58.7563H99.872V59.6531C99.2343 58.8693 98.3441 58.4773 97.2016 58.4773C95.8597 58.4773 94.7636 58.9756 93.9133 59.972C93.063 60.9685 92.6378 62.224 92.6378 63.7386C92.6378 65.2532 93.063 66.5087 93.9133 67.5051C94.7636 68.5016 95.8597 68.9998 97.2016 68.9998C98.3441 68.9998 99.2343 68.6079 99.872 67.824V68.7208H103.559V58.7563ZM98.0984 65.6119C97.5669 65.6119 97.1351 65.4325 96.803 65.0738C96.4841 64.7151 96.3247 64.27 96.3247 63.7386C96.3247 63.2071 96.4841 62.7621 96.803 62.4033C97.1351 62.0446 97.5669 61.8653 98.0984 61.8653C98.6298 61.8653 99.0549 62.0446 99.3738 62.4033C99.706 62.7621 99.872 63.2071 99.872 63.7386C99.872 64.27 99.706 64.7151 99.3738 65.0738C99.0549 65.4325 98.6298 65.6119 98.0984 65.6119ZM113.632 62.2638V58.7563H104.465V62.2638H107.215V68.7208H110.922V62.2638H113.632ZM115.445 67.4852C116.494 68.4949 117.763 68.9998 119.251 68.9998C120.752 68.9998 122.021 68.4949 123.057 67.4852C124.094 66.4755 124.612 65.2266 124.612 63.7386C124.612 62.2505 124.094 61.0017 123.057 59.9919C122.021 58.9822 120.752 58.4773 119.251 58.4773C117.75 58.4773 116.481 58.9822 115.445 59.9919C114.408 61.0017 113.89 62.2505 113.89 63.7386C113.89 65.2266 114.408 66.4755 115.445 67.4852ZM119.251 65.4923C118.759 65.4923 118.354 65.3329 118.035 65.014C117.73 64.6819 117.577 64.2567 117.577 63.7386C117.577 63.2204 117.73 62.8019 118.035 62.4831C118.354 62.1509 118.759 61.9848 119.251 61.9848C119.743 61.9848 120.141 62.1509 120.447 62.4831C120.766 62.8019 120.925 63.2204 120.925 63.7386C120.925 64.2567 120.766 64.6819 120.447 65.014C120.141 65.3329 119.743 65.4923 119.251 65.4923ZM135.418 59.972C134.567 58.9756 133.471 58.4773 132.13 58.4773C130.987 58.4773 130.097 58.8693 129.459 59.6531V58.7563H125.772V72.7066H129.459V67.824C130.097 68.6079 130.987 68.9998 132.13 68.9998C133.471 68.9998 134.567 68.5016 135.418 67.5051C136.268 66.5087 136.693 65.2532 136.693 63.7386C136.693 62.224 136.268 60.9685 135.418 59.972ZM131.233 65.6119C130.701 65.6119 130.269 65.4325 129.937 65.0738C129.618 64.7151 129.459 64.27 129.459 63.7386C129.459 63.2071 129.618 62.7621 129.937 62.4033C130.269 62.0446 130.701 61.8653 131.233 61.8653C131.764 61.8653 132.189 62.0446 132.508 62.4033C132.84 62.7621 133.006 63.2071 133.006 63.7386C133.006 64.27 132.84 64.7151 132.508 65.0738C132.189 65.4325 131.764 65.6119 131.233 65.6119Z" fill="white"/>
</svg>
